<svg width="373" height="71" viewBox="0 0 373 71" fill="none" xmlns="http://www.w3.org/2000/svg">
<path d="M45 69.52H4.28C3 69.52 2.06667 69.2267 1.48 68.64C0.893333 68.0533 0.6 67.12 0.6 65.84V14C0.6 13.3067 0.68 12.72 0.84 12.24C1.05333 11.76 1.34667 11.36 1.72 11.04L12.04 2.32C12.3067 2.10666 12.6533 1.94666 13.08 1.84C13.56 1.68 14.0667 1.6 14.6 1.6H27C28.28 1.6 29.2133 1.89333 29.8 2.48C30.3867 3.06667 30.68 4 30.68 5.28V37.84L30.84 37.68L41.16 28.96C41.4267 28.7467 41.7733 28.5867 42.2 28.48C42.68 28.32 43.1867 28.24 43.72 28.24H55.32C56.6 28.24 57.5333 28.5333 58.12 29.12C58.7067 29.7067 59 30.64 59 31.92V57.12C59 57.8133 58.8933 58.4 58.68 58.88C58.52 59.36 58.2533 59.76 57.88 60.08L47.48 68.72C47.2667 68.9333 46.92 69.12 46.44 69.28C46.0133 69.44 45.5333 69.52 45 69.52ZM55.32 60C56.3333 60 57.0533 59.7867 57.48 59.36C57.96 58.88 58.2 58.1333 58.2 57.12V31.92C58.2 30.9067 57.96 30.1867 57.48 29.76C57.0533 29.28 56.3333 29.04 55.32 29.04H43.72C42.7067 29.04 41.96 29.28 41.48 29.76C41.0533 30.1867 40.84 30.9067 40.84 31.92V44.88H29.88V5.28C29.88 4.26667 29.64 3.54667 29.16 3.12C28.7333 2.64 28.0133 2.4 27 2.4H14.6C13.5867 2.4 12.84 2.64 12.36 3.12C11.9333 3.54667 11.72 4.26667 11.72 5.28V57.12C11.72 58.1333 11.9333 58.88 12.36 59.36C12.84 59.7867 13.5867 60 14.6 60H55.32ZM20.44 52.8V9.6H21.24V52H49.08V36.24H49.88V52.8H20.44ZM104.994 69.52H67.8738C66.5938 69.52 65.6604 69.2267 65.0738 68.64C64.4871 68.0533 64.1938 67.12 64.1938 65.84V14C64.1938 13.3067 64.2738 12.72 64.4338 12.24C64.6471 11.76 64.9404 11.36 65.3138 11.04L75.6338 2.32C75.9004 2.10666 76.2471 1.94666 76.6738 1.84C77.1538 1.68 77.6604 1.6 78.1938 1.6H115.314C116.594 1.6 117.527 1.89333 118.114 2.48C118.7 3.06667 118.994 4 118.994 5.28V14.64C118.994 15.3333 118.887 15.92 118.674 16.4C118.514 16.88 118.247 17.28 117.874 17.6L110.994 23.28C111.527 23.5467 111.9 23.9467 112.114 24.48C112.38 25.0133 112.514 25.7067 112.514 26.56V35.12C112.514 35.8133 112.407 36.4 112.194 36.88C112.034 37.36 111.767 37.76 111.394 38.08L104.274 44.08H115.314C116.594 44.08 117.527 44.3733 118.114 44.96C118.7 45.5467 118.994 46.48 118.994 47.76V57.12C118.994 57.8133 118.887 58.4 118.674 58.88C118.514 59.36 118.247 59.76 117.874 60.08L107.474 68.72C107.26 68.9333 106.914 69.12 106.434 69.28C106.007 69.44 105.527 69.52 104.994 69.52ZM115.314 60C116.327 60 117.047 59.7867 117.474 59.36C117.954 58.88 118.194 58.1333 118.194 57.12V47.76C118.194 46.7467 117.954 46.0267 117.474 45.6C117.047 45.12 116.327 44.88 115.314 44.88H93.2338V38H108.834C109.847 38 110.567 37.7867 110.994 37.36C111.474 36.88 111.714 36.1333 111.714 35.12V26.56C111.714 25.5467 111.474 24.8267 110.994 24.4C110.567 23.92 109.847 23.68 108.834 23.68H93.2338V17.52H115.314C116.327 17.52 117.047 17.3067 117.474 16.88C117.954 16.4 118.194 15.6533 118.194 14.64V5.28C118.194 4.26667 117.954 3.54667 117.474 3.12C117.047 2.64 116.327 2.4 115.314 2.4H78.1938C77.1804 2.4 76.4338 2.64 75.9538 3.12C75.5271 3.54667 75.3138 4.26667 75.3138 5.28V57.12C75.3138 58.1333 75.5271 58.88 75.9538 59.36C76.4338 59.7867 77.1804 60 78.1938 60H115.314ZM110.994 52V52.8H84.0338V9.6H110.994V10.4H84.8338V30.48H104.514V31.28H84.8338V52H110.994ZM168.916 69.52H143.716C136.729 69.52 131.556 67.7067 128.196 64.08C124.889 60.4533 123.236 55.76 123.236 50V27.44C123.236 24.5067 123.662 21.9733 124.516 19.84C125.369 17.7067 126.622 15.92 128.276 14.48L138.596 5.76C140.249 4.37333 142.356 3.33333 144.916 2.64C147.529 1.94667 150.569 1.6 154.036 1.6H174.036C175.316 1.6 176.249 1.89333 176.836 2.48C177.422 3.06667 177.716 4 177.716 5.28V14.96C177.716 15.6533 177.609 16.24 177.396 16.72C177.236 17.2 176.969 17.6 176.596 17.92L166.196 26.56C165.982 26.7733 165.636 26.96 165.156 27.12C164.729 27.28 164.249 27.36 163.716 27.36H153.316V38.88C153.369 38.7733 153.449 38.6667 153.556 38.56C153.716 38.4 153.849 38.2667 153.956 38.16L164.276 29.44C164.542 29.2267 164.889 29.0667 165.316 28.96C165.796 28.8 166.302 28.72 166.836 28.72H179.236C180.516 28.72 181.449 29.0133 182.036 29.6C182.622 30.1867 182.916 31.12 182.916 32.4V57.12C182.916 57.8133 182.809 58.4 182.596 58.88C182.436 59.36 182.169 59.76 181.796 60.08L171.396 68.72C171.182 68.9333 170.836 69.12 170.356 69.28C169.929 69.44 169.449 69.52 168.916 69.52ZM179.236 60C180.249 60 180.969 59.7867 181.396 59.36C181.876 58.88 182.116 58.1333 182.116 57.12V32.4C182.116 31.3867 181.876 30.6667 181.396 30.24C180.969 29.76 180.249 29.52 179.236 29.52H166.836C165.822 29.52 165.076 29.76 164.596 30.24C164.169 30.6667 163.956 31.3867 163.956 32.4V44.88H156.196C154.969 44.88 154.036 44.56 153.396 43.92C152.809 43.28 152.516 42.2933 152.516 40.96V21.84C152.516 20.5067 152.916 19.52 153.716 18.88C154.516 18.1867 155.742 17.84 157.396 17.84H174.036C175.049 17.84 175.769 17.6267 176.196 17.2C176.676 16.72 176.916 15.9733 176.916 14.96V5.28C176.916 4.26667 176.676 3.54667 176.196 3.12C175.769 2.64 175.049 2.4 174.036 2.4H154.036C147.369 2.4 142.409 3.73333 139.156 6.4C135.956 9.06667 134.356 13.1733 134.356 18.72V43.68C134.356 49.2267 135.956 53.3333 139.156 56C142.409 58.6667 147.369 60 154.036 60H179.236ZM157.476 52.8C154.542 52.8 152.142 52.6133 150.276 52.24C148.409 51.8667 146.942 51.28 145.876 50.48C144.809 49.6267 144.062 48.56 143.636 47.28C143.262 45.9467 143.076 44.3467 143.076 42.48V20.08C143.076 16.2933 143.929 13.6 145.636 12C147.342 10.4 150.756 9.6 155.876 9.6H169.716V10.4H155.876C151.182 10.4 148.009 11.1467 146.356 12.64C144.702 14.08 143.876 16.56 143.876 20.08V42.48C143.876 45.9467 144.782 48.4 146.596 49.84C148.462 51.28 152.089 52 157.476 52H172.596V36.72H173.396V52.8H157.476ZM226.085 69.52H190.725C189.445 69.52 188.512 69.2267 187.925 68.64C187.338 68.0533 187.045 67.12 187.045 65.84V56.16C187.045 55.4667 187.125 54.88 187.285 54.4C187.498 53.92 187.792 53.52 188.165 53.2L198.485 44.48C198.538 44.4267 198.592 44.4 198.645 44.4C198.752 44.3467 198.832 44.2933 198.885 44.24V27.36H192.325C191.045 27.36 190.112 27.0667 189.525 26.48C188.938 25.8933 188.645 24.96 188.645 23.68V14C188.645 13.3067 188.725 12.72 188.885 12.24C189.098 11.76 189.392 11.36 189.765 11.04L200.085 2.32C200.352 2.10666 200.698 1.94666 201.125 1.84C201.605 1.68 202.112 1.6 202.645 1.6H225.845C227.125 1.6 228.058 1.89333 228.645 2.48C229.232 3.06667 229.525 4 229.525 5.28V43.76H236.405C237.685 43.76 238.618 44.0533 239.205 44.64C239.792 45.2267 240.085 46.16 240.085 47.44V57.12C240.085 57.8133 239.978 58.4 239.765 58.88C239.605 59.36 239.338 59.76 238.965 60.08L228.565 68.72C228.352 68.9333 228.005 69.12 227.525 69.28C227.098 69.44 226.618 69.52 226.085 69.52ZM236.405 60C237.418 60 238.138 59.7867 238.565 59.36C239.045 58.88 239.285 58.1333 239.285 57.12V47.44C239.285 46.4267 239.045 45.7067 238.565 45.28C238.138 44.8 237.418 44.56 236.405 44.56H228.725V5.28C228.725 4.26667 228.485 3.54667 228.005 3.12C227.578 2.64 226.858 2.4 225.845 2.4H202.645C201.632 2.4 200.885 2.64 200.405 3.12C199.978 3.54667 199.765 4.26667 199.765 5.28V14.96C199.765 15.9733 199.978 16.72 200.405 17.2C200.885 17.6267 201.632 17.84 202.645 17.84H210.005V44.56H201.045C200.032 44.56 199.285 44.8 198.805 45.28C198.378 45.7067 198.165 46.4267 198.165 47.44V57.12C198.165 58.1333 198.378 58.88 198.805 59.36C199.285 59.7867 200.032 60 201.045 60H236.405ZM205.365 53.2V52.4H218.965V10.4H206.965V9.6H219.765V52.4H232.085V53.2H205.365ZM289.539 65.76C287.725 67.3067 285.165 68.5067 281.859 69.36C278.605 70.2667 274.392 70.72 269.219 70.72C264.099 70.72 259.885 70.16 256.579 69.04C253.272 67.9733 250.685 66.5333 248.819 64.72C246.952 62.9067 245.672 60.8267 244.979 58.48C244.285 56.1333 243.939 53.7067 243.939 51.2V26.32C243.939 23.8133 244.285 21.52 244.979 19.44C245.672 17.36 246.925 15.5733 248.739 14.08L259.139 5.36C260.952 3.81333 263.485 2.61333 266.739 1.76C270.045 0.853329 274.312 0.399995 279.539 0.399995C284.659 0.399995 288.872 0.826662 292.179 1.68C295.485 2.53333 298.045 3.73333 299.859 5.28C301.725 6.77333 303.005 8.58666 303.699 10.72C304.392 12.8 304.739 15.0933 304.739 17.6V44.88C304.739 47.3333 304.392 49.6267 303.699 51.76C303.005 53.84 301.752 55.6267 299.939 57.12L289.539 65.76ZM303.939 44.88V17.6C303.939 15.1467 303.592 12.9333 302.899 10.96C302.205 8.93333 300.952 7.2 299.139 5.76C297.325 4.32 294.819 3.2 291.619 2.4C288.472 1.6 284.445 1.2 279.539 1.2C274.632 1.2 270.579 1.6 267.379 2.4C264.232 3.2 261.752 4.32 259.939 5.76C258.125 7.2 256.845 8.93333 256.099 10.96C255.405 12.9333 255.059 15.1467 255.059 17.6V44.88C255.059 47.3333 255.405 49.5733 256.099 51.6C256.845 53.5733 258.125 55.28 259.939 56.72C261.752 58.1067 264.232 59.2 267.379 60C270.579 60.8 274.632 61.2 279.539 61.2C284.445 61.2 288.472 60.8 291.619 60C294.819 59.2 297.325 58.1067 299.139 56.72C300.952 55.28 302.205 53.5733 302.899 51.6C303.592 49.5733 303.939 47.3333 303.939 44.88ZM263.699 43.04V19.44C263.699 17.84 263.939 16.3733 264.419 15.04C264.899 13.7067 265.725 12.5867 266.899 11.68C268.072 10.72 269.672 9.97333 271.699 9.44C273.779 8.90666 276.365 8.64 279.459 8.64C285.645 8.64 289.832 9.65333 292.019 11.68C294.259 13.7067 295.379 16.2933 295.379 19.44V43.04C295.379 46.24 294.259 48.8533 292.019 50.88C289.832 52.8533 285.645 53.84 279.459 53.84C276.365 53.84 273.779 53.5733 271.699 53.04C269.672 52.5067 268.072 51.7867 266.899 50.88C265.725 49.92 264.899 48.7733 264.419 47.44C263.939 46.1067 263.699 44.64 263.699 43.04ZM279.459 9.44C273.752 9.44 269.832 10.3467 267.699 12.16C265.565 13.9733 264.499 16.4 264.499 19.44V43.04C264.499 46.08 265.565 48.5067 267.699 50.32C269.832 52.1333 273.752 53.04 279.459 53.04C285.165 53.04 289.112 52.1333 291.299 50.32C293.485 48.5067 294.579 46.08 294.579 43.04V19.44C294.579 16.4533 293.485 14.0533 291.299 12.24C289.112 10.3733 285.165 9.44 279.459 9.44ZM273.139 42V20.48C273.139 19.4667 273.512 18.6133 274.259 17.92C275.059 17.1733 276.819 16.8 279.539 16.8C282.259 16.8 283.992 17.1733 284.739 17.92C285.539 18.6133 285.939 19.4667 285.939 20.48V42C285.939 43.0667 285.539 43.9733 284.739 44.72C283.992 45.4133 282.259 45.76 279.539 45.76C276.819 45.76 275.059 45.4133 274.259 44.72C273.512 43.9733 273.139 43.0667 273.139 42ZM273.939 42C273.939 42.3733 273.992 42.7467 274.099 43.12C274.205 43.4933 274.445 43.7867 274.819 44V29.2C274.819 28.8267 274.765 28.4533 274.659 28.08C274.552 27.7067 274.312 27.4133 273.939 27.2V42ZM332.671 10.24L362.111 43.36V9.6H362.911V52.8H362.111V44.56L331.871 10.64C331.817 10.5867 331.737 10.5333 331.631 10.48C331.577 10.4267 331.524 10.4 331.471 10.4C331.417 10.4 331.364 10.4267 331.311 10.48C331.311 10.5333 331.311 10.5867 331.311 10.64V52.8H330.511V10.48C330.511 10.16 330.617 9.92 330.831 9.76C331.044 9.6 331.257 9.52 331.471 9.52C331.684 9.52 331.871 9.57333 332.031 9.68C332.191 9.78666 332.404 9.97333 332.671 10.24ZM336.991 60C338.004 60 338.724 59.7867 339.151 59.36C339.631 58.88 339.871 58.1333 339.871 57.12V30.72L353.551 47.28V57.12C353.551 58.1333 353.764 58.88 354.191 59.36C354.671 59.7867 355.417 60 356.431 60H368.431C369.444 60 370.164 59.7867 370.591 59.36C371.071 58.88 371.311 58.1333 371.311 57.12V5.28C371.311 4.26667 371.071 3.54667 370.591 3.12C370.164 2.64 369.444 2.4 368.431 2.4H356.431C355.417 2.4 354.671 2.64 354.191 3.12C353.764 3.54667 353.551 4.26667 353.551 5.28V22.32L338.031 4.56C337.337 3.76 336.617 3.2 335.871 2.88C335.177 2.56 334.324 2.4 333.311 2.4H324.991C323.977 2.4 323.231 2.64 322.751 3.12C322.324 3.54667 322.111 4.26667 322.111 5.28V57.12C322.111 58.1333 322.324 58.88 322.751 59.36C323.231 59.7867 323.977 60 324.991 60H336.991ZM339.551 60.08L329.151 68.72C328.937 68.9333 328.591 69.12 328.111 69.28C327.684 69.44 327.204 69.52 326.671 69.52H314.671C313.391 69.52 312.457 69.2267 311.871 68.64C311.284 68.0533 310.991 67.12 310.991 65.84V14C310.991 13.3067 311.071 12.72 311.231 12.24C311.444 11.76 311.737 11.36 312.111 11.04L322.431 2.32C322.697 2.10666 323.044 1.94666 323.471 1.84C323.951 1.68 324.457 1.6 324.991 1.6H333.311C334.484 1.6 335.471 1.78666 336.271 2.16C337.071 2.53333 337.871 3.14666 338.671 4L344.191 10.4L353.871 2.32C354.137 2.10666 354.484 1.94666 354.911 1.84C355.391 1.68 355.897 1.6 356.431 1.6H368.431C369.711 1.6 370.644 1.89333 371.231 2.48C371.817 3.06667 372.111 4 372.111 5.28V57.12C372.111 57.8133 372.004 58.4 371.791 58.88C371.631 59.36 371.364 59.76 370.991 60.08L360.591 68.72C360.377 68.9333 360.031 69.12 359.551 69.28C359.124 69.44 358.644 69.52 358.111 69.52H346.111C344.831 69.52 343.897 69.2267 343.311 68.64C342.724 68.0533 342.431 67.12 342.431 65.84V56.32L340.671 54.16V57.12C340.671 57.8133 340.564 58.4 340.351 58.88C340.191 59.36 339.924 59.76 339.551 60.08Z" fill="white"/>
</svg>
