<svg width="198" height="282" viewBox="0 0 198 282" fill="none" xmlns="http://www.w3.org/2000/svg">
<path d="M193.401 16.7235L18.662 274.52C16.0226 278.414 10.7261 279.431 6.83206 276.792C4.3176 275.088 2.90105 272.173 3.11435 269.143L14.2437 111.033C15.432 94.1508 25.6047 79.2112 40.8771 71.9194L182.654 4.22735C185.39 2.92094 188.614 3.16355 191.123 4.86476C195.027 7.51064 196.046 12.82 193.401 16.7235Z" fill="#F2FF5E" fill-opacity="0.1"/>
<path d="M193.401 16.7235L18.662 274.52C16.0226 278.414 10.7261 279.431 6.83206 276.792C4.3176 275.088 2.90105 272.173 3.11435 269.143L14.2437 111.033C15.432 94.1508 25.6047 79.2112 40.8771 71.9194L182.654 4.22735C185.39 2.92094 188.614 3.16355 191.123 4.86476C195.027 7.51064 196.046 12.82 193.401 16.7235Z" stroke="url(#paint0_linear_436_3)" stroke-width="6"/>
<path d="M193.401 16.7235L18.662 274.52C16.0226 278.414 10.7261 279.431 6.83206 276.792C4.3176 275.088 2.90105 272.173 3.11435 269.143L14.2437 111.033C15.432 94.1508 25.6047 79.2112 40.8771 71.9194L182.654 4.22735C185.39 2.92094 188.614 3.16355 191.123 4.86476C195.027 7.51064 196.046 12.82 193.401 16.7235Z" stroke="black" stroke-opacity="0.8" stroke-width="6"/>
<defs>
<linearGradient id="paint0_linear_436_3" x1="-470.374" y1="-180.815" x2="-533.59" y2="-271.252" gradientUnits="userSpaceOnUse">
<stop stop-color="#EBFF00"/>
<stop offset="1" stop-color="#D3FF25"/>
</linearGradient>
</defs>
</svg>
