<svg width="435" height="133" viewBox="0 0 435 133" fill="none" xmlns="http://www.w3.org/2000/svg">
<g filter="url(#filter0_d_364_2)">
<path d="M29.1383 19H405.875C409.258 19 412 21.7421 412 25.1246C412 27.606 410.503 29.8422 408.208 30.7874L234.531 102.341C223.01 107.087 210.077 107.065 198.573 102.279L26.7804 30.8056C24.4914 29.8533 23 27.6175 23 25.1383C23 21.7482 25.7482 19 29.1383 19Z" fill="#F2FF5E"/>
<path d="M29.1383 19H405.875C409.258 19 412 21.7421 412 25.1246C412 27.606 410.503 29.8422 408.208 30.7874L234.531 102.341C223.01 107.087 210.077 107.065 198.573 102.279L26.7804 30.8056C24.4914 29.8533 23 27.6175 23 25.1383C23 21.7482 25.7482 19 29.1383 19Z" stroke="url(#paint0_linear_364_2)" stroke-width="6"/>
<path d="M29.1383 19H405.875C409.258 19 412 21.7421 412 25.1246C412 27.606 410.503 29.8422 408.208 30.7874L234.531 102.341C223.01 107.087 210.077 107.065 198.573 102.279L26.7804 30.8056C24.4914 29.8533 23 27.6175 23 25.1383C23 21.7482 25.7482 19 29.1383 19Z" stroke="black" stroke-opacity="0.8" stroke-width="6"/>
</g>
<defs>
<filter id="filter0_d_364_2" x="0" y="0" width="435" height="132.885" filterUnits="userSpaceOnUse" color-interpolation-filters="sRGB">
<feFlood flood-opacity="0" result="BackgroundImageFix"/>
<feColorMatrix in="SourceAlpha" type="matrix" values="0 0 0 0 0 0 0 0 0 0 0 0 0 0 0 0 0 0 127 0" result="hardAlpha"/>
<feOffset dy="4"/>
<feGaussianBlur stdDeviation="10"/>
<feComposite in2="hardAlpha" operator="out"/>
<feColorMatrix type="matrix" values="0 0 0 0 0.949333 0 0 0 0 1 0 0 0 0 0.366667 0 0 0 1 0"/>
<feBlend mode="normal" in2="BackgroundImageFix" result="effect1_dropShadow_364_2"/>
<feBlend mode="normal" in="SourceGraphic" in2="effect1_dropShadow_364_2" result="shape"/>
</filter>
<linearGradient id="paint0_linear_364_2" x1="280.326" y1="572.6" x2="255.255" y2="664.916" gradientUnits="userSpaceOnUse">
<stop stop-color="#EBFF00"/>
<stop offset="1" stop-color="#D3FF25"/>
</linearGradient>
</defs>
</svg>
