<svg width="198" height="281" viewBox="0 0 198 281" fill="none" xmlns="http://www.w3.org/2000/svg">
<path d="M191.03 4.47071C194.933 7.11652 195.953 12.4259 193.307 16.3294L18.5688 274.126C15.9294 278.02 10.6329 279.037 6.73878 276.398C4.22438 274.694 2.80779 271.779 3.02109 268.749L14.1505 110.639C15.3388 93.7569 25.5113 78.8169 40.7843 71.5249L182.56 3.83321C185.296 2.52681 188.52 2.76951 191.03 4.47071Z" stroke="url(#paint0_linear_511_10)" stroke-width="6"/>
<path d="M191.03 4.47071C194.933 7.11652 195.953 12.4259 193.307 16.3294L18.5688 274.126C15.9294 278.02 10.6329 279.037 6.73878 276.398C4.22438 274.694 2.80779 271.779 3.02109 268.749L14.1505 110.639C15.3388 93.7569 25.5113 78.8169 40.7843 71.5249L182.56 3.83321C185.296 2.52681 188.52 2.76951 191.03 4.47071Z" stroke="black" stroke-opacity="0.8" stroke-width="6"/>
<path d="M191.03 4.47071C194.933 7.11652 195.953 12.4259 193.307 16.3294L18.5688 274.126C15.9294 278.02 10.6329 279.037 6.73878 276.398C4.22438 274.694 2.80779 271.779 3.02109 268.749L14.1505 110.639C15.3388 93.7569 25.5113 78.8169 40.7843 71.5249L182.56 3.83321C185.296 2.52681 188.52 2.76951 191.03 4.47071Z" fill="#F2FF5E" fill-opacity="0.1"/>
<defs>
<linearGradient id="paint0_linear_511_10" x1="-470.467" y1="-181.209" x2="-533.684" y2="-271.646" gradientUnits="userSpaceOnUse">
<stop stop-color="#EBFF00"/>
<stop offset="1" stop-color="#D3FF25"/>
</linearGradient>
</defs>
</svg>
