<svg width="502" height="120" viewBox="0 0 502 120" fill="none" xmlns="http://www.w3.org/2000/svg">
<path d="M154.369 99.7H149.704C148.11 99.7 146.925 99.3667 146.147 98.7C145.382 98.0333 145 97.0067 145 95.62V89.4C145 88.0133 145.382 86.9867 146.147 86.32C146.925 85.64 148.11 85.3 149.704 85.3H154.369C154.611 85.3 154.783 85.36 154.885 85.48C155 85.5867 155.057 85.7667 155.057 86.02V88.44C155.057 88.6933 155 88.88 154.885 89C154.783 89.1067 154.611 89.16 154.369 89.16H150.526C150.131 89.16 149.837 89.2467 149.646 89.42C149.455 89.58 149.359 89.8267 149.359 90.16V94.92C149.359 95.2533 149.455 95.5 149.646 95.66C149.837 95.8067 150.131 95.88 150.526 95.88H154.369C154.611 95.88 154.783 95.94 154.885 96.06C155 96.1667 155.057 96.3467 155.057 96.6V98.98C155.057 99.2333 155 99.42 154.885 99.54C154.783 99.6467 154.611 99.7 154.369 99.7ZM153.317 97.7H150.124C148.977 97.7 148.212 97.52 147.83 97.16C147.447 96.8 147.256 96.1867 147.256 95.32V89.72C147.256 88.84 147.454 88.22 147.849 87.86C148.244 87.4867 149.002 87.3 150.124 87.3H153.317V87.1H150.124C148.9 87.1 148.085 87.3 147.677 87.7C147.269 88.1 147.065 88.7733 147.065 89.72V95.32C147.065 96.24 147.263 96.9 147.658 97.3C148.066 97.7 148.888 97.9 150.124 97.9H153.317V97.7Z" fill="#EBFF00"/>
<path d="M168.786 95.92C168.786 96.5333 168.697 97.0933 168.519 97.6C168.353 98.0933 168.047 98.52 167.601 98.88C167.167 99.2267 166.562 99.5 165.784 99.7C165.02 99.9 164.044 100 162.859 100C161.674 100 160.692 99.9 159.915 99.7C159.137 99.5 158.525 99.2267 158.079 98.88C157.646 98.52 157.34 98.0933 157.161 97.6C156.996 97.0933 156.913 96.5333 156.913 95.92V89.1C156.913 88.4867 156.996 87.9333 157.161 87.44C157.34 86.9333 157.646 86.5 158.079 86.14C158.525 85.78 159.137 85.5 159.915 85.3C160.692 85.1 161.674 85 162.859 85C164.044 85 165.02 85.1 165.784 85.3C166.562 85.5 167.167 85.78 167.601 86.14C168.047 86.5 168.353 86.9333 168.519 87.44C168.697 87.9333 168.786 88.4867 168.786 89.1V95.92ZM166.702 95.46V89.56C166.702 88.76 166.428 88.1133 165.88 87.62C165.332 87.1133 164.312 86.86 162.821 86.86C161.329 86.86 160.316 87.1133 159.781 87.62C159.245 88.1133 158.978 88.76 158.978 89.56V95.46C158.978 96.26 159.245 96.9133 159.781 97.42C160.316 97.9133 161.329 98.16 162.821 98.16C164.312 98.16 165.332 97.9133 165.88 97.42C166.428 96.9133 166.702 96.26 166.702 95.46ZM159.169 95.46V89.56C159.169 88.8133 159.424 88.2133 159.934 87.76C160.443 87.2933 161.406 87.06 162.821 87.06C164.236 87.06 165.204 87.2933 165.727 87.76C166.25 88.2133 166.511 88.8133 166.511 89.56V95.46C166.511 96.2067 166.25 96.8133 165.727 97.28C165.204 97.7333 164.236 97.96 162.821 97.96C161.406 97.96 160.443 97.7333 159.934 97.28C159.424 96.8133 159.169 96.2067 159.169 95.46ZM161.253 95.2C161.253 95.4667 161.349 95.6933 161.54 95.88C161.731 96.0533 162.171 96.14 162.859 96.14C163.547 96.14 163.987 96.0533 164.178 95.88C164.369 95.6933 164.465 95.4667 164.465 95.2V89.82C164.465 89.5667 164.369 89.3533 164.178 89.18C163.987 88.9933 163.547 88.9 162.859 88.9C162.171 88.9 161.731 88.9933 161.54 89.18C161.349 89.3533 161.253 89.5667 161.253 89.82V95.2Z" fill="#EBFF00"/>
<path d="M173.744 87.26C173.68 87.1933 173.629 87.1467 173.591 87.12C173.553 87.0933 173.508 87.08 173.457 87.08C173.406 87.08 173.355 87.1 173.304 87.14C173.253 87.18 173.228 87.24 173.228 87.32V97.9H173.419V87.36C173.419 87.3467 173.419 87.3333 173.419 87.32C173.432 87.3067 173.445 87.3 173.457 87.3C173.47 87.3 173.483 87.3067 173.496 87.32C173.521 87.3333 173.54 87.3467 173.553 87.36L180.78 95.84V97.9H180.971V87.1H180.78V95.54L173.744 87.26ZM174.777 99.7H171.909C171.666 99.7 171.488 99.6467 171.373 99.54C171.271 99.42 171.22 99.2333 171.22 98.98V86.02C171.22 85.7667 171.271 85.5867 171.373 85.48C171.488 85.36 171.666 85.3 171.909 85.3H173.897C174.139 85.3 174.343 85.34 174.509 85.42C174.687 85.5 174.859 85.64 175.025 85.84L178.734 90.28V86.02C178.734 85.7667 178.785 85.5867 178.887 85.48C179.002 85.36 179.181 85.3 179.423 85.3H182.291C182.533 85.3 182.705 85.36 182.807 85.48C182.922 85.5867 182.979 85.7667 182.979 86.02V98.98C182.979 99.2333 182.922 99.42 182.807 99.54C182.705 99.6467 182.533 99.7 182.291 99.7H179.423C179.181 99.7 179.002 99.6467 178.887 99.54C178.785 99.42 178.734 99.2333 178.734 98.98V96.52L175.465 92.38V98.98C175.465 99.2333 175.408 99.42 175.293 99.54C175.191 99.6467 175.019 99.7 174.777 99.7Z" fill="#EBFF00"/>
<path d="M188.14 87.26C188.076 87.1933 188.025 87.1467 187.987 87.12C187.949 87.0933 187.904 87.08 187.853 87.08C187.802 87.08 187.751 87.1 187.7 87.14C187.649 87.18 187.624 87.24 187.624 87.32V97.9H187.815V87.36C187.815 87.3467 187.815 87.3333 187.815 87.32C187.828 87.3067 187.841 87.3 187.853 87.3C187.866 87.3 187.879 87.3067 187.892 87.32C187.917 87.3333 187.936 87.3467 187.949 87.36L195.176 95.84V97.9H195.367V87.1H195.176V95.54L188.14 87.26ZM189.173 99.7H186.305C186.062 99.7 185.884 99.6467 185.769 99.54C185.667 99.42 185.616 99.2333 185.616 98.98V86.02C185.616 85.7667 185.667 85.5867 185.769 85.48C185.884 85.36 186.062 85.3 186.305 85.3H188.293C188.535 85.3 188.739 85.34 188.905 85.42C189.083 85.5 189.255 85.64 189.421 85.84L193.13 90.28V86.02C193.13 85.7667 193.181 85.5867 193.283 85.48C193.398 85.36 193.577 85.3 193.819 85.3H196.687C196.929 85.3 197.101 85.36 197.203 85.48C197.318 85.5867 197.375 85.7667 197.375 86.02V98.98C197.375 99.2333 197.318 99.42 197.203 99.54C197.101 99.6467 196.929 99.7 196.687 99.7H193.819C193.577 99.7 193.398 99.6467 193.283 99.54C193.181 99.42 193.13 99.2333 193.13 98.98V96.52L189.861 92.38V98.98C189.861 99.2333 189.804 99.42 189.689 99.54C189.587 99.6467 189.415 99.7 189.173 99.7Z" fill="#EBFF00"/>
<path d="M209.572 99.7H200.701C200.458 99.7 200.28 99.6467 200.165 99.54C200.063 99.42 200.012 99.2333 200.012 98.98V86.02C200.012 85.7667 200.063 85.5867 200.165 85.48C200.28 85.36 200.458 85.3 200.701 85.3H209.572C209.815 85.3 209.987 85.36 210.089 85.48C210.203 85.5867 210.261 85.7667 210.261 86.02V88.36C210.261 88.6133 210.203 88.8 210.089 88.92C209.987 89.0267 209.815 89.08 209.572 89.08H204.295V90.62H208.024C208.266 90.62 208.438 90.68 208.54 90.8C208.655 90.9067 208.712 91.0867 208.712 91.34V93.48C208.712 93.7333 208.655 93.92 208.54 94.04C208.438 94.1467 208.266 94.2 208.024 94.2H204.295V95.92H209.572C209.815 95.92 209.987 95.98 210.089 96.1C210.203 96.2067 210.261 96.3867 210.261 96.64V98.98C210.261 99.2333 210.203 99.42 210.089 99.54C209.987 99.6467 209.815 99.7 209.572 99.7ZM208.54 97.7H202.288V92.52H206.991V92.32H202.288V87.3H208.54V87.1H202.096V97.9H208.54V97.7Z" fill="#EBFF00"/>
<path d="M221.588 99.7H216.922C215.329 99.7 214.144 99.3667 213.366 98.7C212.601 98.0333 212.219 97.0067 212.219 95.62V89.4C212.219 88.0133 212.601 86.9867 213.366 86.32C214.144 85.64 215.329 85.3 216.922 85.3H221.588C221.83 85.3 222.002 85.36 222.104 85.48C222.219 85.5867 222.276 85.7667 222.276 86.02V88.44C222.276 88.6933 222.219 88.88 222.104 89C222.002 89.1067 221.83 89.16 221.588 89.16H217.744C217.349 89.16 217.056 89.2467 216.865 89.42C216.674 89.58 216.578 89.8267 216.578 90.16V94.92C216.578 95.2533 216.674 95.5 216.865 95.66C217.056 95.8067 217.349 95.88 217.744 95.88H221.588C221.83 95.88 222.002 95.94 222.104 96.06C222.219 96.1667 222.276 96.3467 222.276 96.6V98.98C222.276 99.2333 222.219 99.42 222.104 99.54C222.002 99.6467 221.83 99.7 221.588 99.7ZM220.536 97.7H217.343C216.196 97.7 215.431 97.52 215.049 97.16C214.666 96.8 214.475 96.1867 214.475 95.32V89.72C214.475 88.84 214.673 88.22 215.068 87.86C215.463 87.4867 216.221 87.3 217.343 87.3H220.536V87.1H217.343C216.119 87.1 215.303 87.3 214.896 87.7C214.488 88.1 214.284 88.7733 214.284 89.72V95.32C214.284 96.24 214.481 96.9 214.876 97.3C215.284 97.7 216.107 97.9 217.343 97.9H220.536V97.7Z" fill="#EBFF00"/>
<path d="M230.936 99.7H227.839C227.596 99.7 227.418 99.6467 227.303 99.54C227.201 99.42 227.15 99.2333 227.15 98.98V89.16H224.34C224.097 89.16 223.919 89.1067 223.804 89C223.702 88.88 223.651 88.6933 223.651 88.44V86.02C223.651 85.7667 223.702 85.5867 223.804 85.48C223.919 85.36 224.097 85.3 224.34 85.3H234.435C234.677 85.3 234.849 85.36 234.951 85.48C235.066 85.5867 235.123 85.7667 235.123 86.02V88.44C235.123 88.6933 235.066 88.88 234.951 89C234.849 89.1067 234.677 89.16 234.435 89.16H231.624V98.98C231.624 99.2333 231.567 99.42 231.452 99.54C231.35 99.6467 231.178 99.7 230.936 99.7ZM229.292 97.9H229.483V87.3H233.402V87.1H225.372V87.3H229.292V97.9Z" fill="#EBFF00"/>
<path d="M247.821 92C247.591 92 247.426 91.9467 247.324 91.84C247.222 91.7333 247.062 91.5067 246.846 91.16L244.513 87.44C244.436 87.3067 244.347 87.22 244.245 87.18C244.143 87.1267 244.041 87.1 243.939 87.1H243.614C243.449 87.1 243.321 87.1533 243.232 87.26C243.155 87.3533 243.117 87.5067 243.117 87.72V97.9H243.308V87.72C243.308 87.6133 243.328 87.52 243.366 87.44C243.404 87.3467 243.487 87.3 243.614 87.3H243.901C243.99 87.3 244.067 87.3133 244.131 87.34C244.207 87.3667 244.284 87.4467 244.36 87.58L246.693 91.26C246.922 91.62 247.094 91.8667 247.209 92C247.336 92.1333 247.54 92.2 247.821 92.2C248.101 92.2 248.299 92.1333 248.413 92C248.541 91.8667 248.719 91.62 248.949 91.26L251.281 87.58C251.358 87.4467 251.428 87.3667 251.492 87.34C251.555 87.3133 251.632 87.3 251.721 87.3H252.008C252.135 87.3 252.218 87.3467 252.257 87.44C252.308 87.52 252.333 87.6133 252.333 87.72V97.9H252.524V87.72C252.524 87.5067 252.48 87.3533 252.39 87.26C252.314 87.1533 252.186 87.1 252.008 87.1H251.683C251.581 87.1 251.479 87.1267 251.377 87.18C251.288 87.22 251.205 87.3067 251.128 87.44L248.796 91.16C248.579 91.5067 248.42 91.7333 248.318 91.84C248.216 91.9467 248.05 92 247.821 92ZM244.628 99.7H241.779C241.537 99.7 241.358 99.6467 241.243 99.54C241.141 99.42 241.09 99.2333 241.09 98.98V86.02C241.09 85.7667 241.141 85.5867 241.243 85.48C241.358 85.36 241.537 85.3 241.779 85.3H244.857C245.061 85.3 245.227 85.3467 245.354 85.44C245.494 85.5333 245.622 85.6867 245.737 85.9L247.457 89.16C247.521 89.28 247.572 89.3667 247.61 89.42C247.661 89.4733 247.725 89.5 247.802 89.5H247.974C248.05 89.5 248.108 89.4733 248.146 89.42C248.197 89.3667 248.254 89.28 248.318 89.16L250.02 85.9C250.134 85.6867 250.255 85.5333 250.383 85.44C250.523 85.3467 250.695 85.3 250.899 85.3H253.996C254.239 85.3 254.411 85.36 254.513 85.48C254.627 85.5867 254.685 85.7667 254.685 86.02V98.98C254.685 99.2333 254.627 99.42 254.513 99.54C254.411 99.6467 254.239 99.7 253.996 99.7H251.052C250.81 99.7 250.631 99.6467 250.517 99.54C250.415 99.42 250.364 99.2333 250.364 98.98V91.94L249.236 94.12C249.121 94.3467 248.981 94.5133 248.815 94.62C248.662 94.7133 248.464 94.76 248.222 94.76H247.457C247.215 94.76 247.011 94.7133 246.846 94.62C246.693 94.5133 246.559 94.3467 246.444 94.12L245.316 91.94V98.98C245.316 99.2333 245.259 99.42 245.144 99.54C245.042 99.6467 244.87 99.7 244.628 99.7Z" fill="#EBFF00"/>
<path d="M266.876 99.7H258.005C257.762 99.7 257.584 99.6467 257.469 99.54C257.367 99.42 257.316 99.2333 257.316 98.98V86.02C257.316 85.7667 257.367 85.5867 257.469 85.48C257.584 85.36 257.762 85.3 258.005 85.3H266.876C267.119 85.3 267.291 85.36 267.393 85.48C267.507 85.5867 267.565 85.7667 267.565 86.02V88.36C267.565 88.6133 267.507 88.8 267.393 88.92C267.291 89.0267 267.119 89.08 266.876 89.08H261.599V90.62H265.328C265.57 90.62 265.742 90.68 265.844 90.8C265.959 90.9067 266.016 91.0867 266.016 91.34V93.48C266.016 93.7333 265.959 93.92 265.844 94.04C265.742 94.1467 265.57 94.2 265.328 94.2H261.599V95.92H266.876C267.119 95.92 267.291 95.98 267.393 96.1C267.507 96.2067 267.565 96.3867 267.565 96.64V98.98C267.565 99.2333 267.507 99.42 267.393 99.54C267.291 99.6467 267.119 99.7 266.876 99.7ZM265.844 97.7H259.592V92.52H264.295V92.32H259.592V87.3H265.844V87.1H259.4V97.9H265.844V97.7Z" fill="#EBFF00"/>
<path d="M276.327 99.7H273.23C272.988 99.7 272.809 99.6467 272.695 99.54C272.593 99.42 272.542 99.2333 272.542 98.98V89.16H269.731C269.489 89.16 269.31 89.1067 269.196 89C269.094 88.88 269.043 88.6933 269.043 88.44V86.02C269.043 85.7667 269.094 85.5867 269.196 85.48C269.31 85.36 269.489 85.3 269.731 85.3H279.826C280.068 85.3 280.241 85.36 280.343 85.48C280.457 85.5867 280.515 85.7667 280.515 86.02V88.44C280.515 88.6933 280.457 88.88 280.343 89C280.241 89.1067 280.068 89.16 279.826 89.16H277.016V98.98C277.016 99.2333 276.958 99.42 276.844 99.54C276.742 99.6467 276.569 99.7 276.327 99.7ZM274.683 97.9H274.874V87.3H278.794V87.1H270.763V87.3H274.683V97.9Z" fill="#EBFF00"/>
<path d="M283.54 93.64C283.54 93.28 283.565 92.9467 283.616 92.64C283.68 92.3333 283.756 92.0467 283.846 91.78L285.069 88.5C285.197 88.1667 285.337 87.8867 285.49 87.66C285.643 87.42 285.91 87.3 286.293 87.3H288.167C288.524 87.3 288.778 87.42 288.931 87.66C289.084 87.8867 289.231 88.1733 289.371 88.52L290.69 91.78C290.78 92.0467 290.85 92.3333 290.901 92.64C290.965 92.9467 290.996 93.28 290.996 93.64V94.26H283.54V93.64ZM286.599 89.5L285.7 92.54H288.702L287.803 89.5C287.752 89.38 287.695 89.2933 287.631 89.24C287.58 89.1867 287.517 89.16 287.44 89.16H286.962C286.886 89.16 286.815 89.1867 286.752 89.24C286.701 89.2933 286.65 89.38 286.599 89.5ZM290.996 97.9H291.188V93.64C291.188 93.2667 291.156 92.9267 291.092 92.62C291.041 92.3 290.965 91.9933 290.863 91.7L289.543 88.44C289.39 88.0533 289.225 87.7333 289.046 87.48C288.88 87.2267 288.587 87.1 288.167 87.1H286.293C285.859 87.1 285.554 87.2267 285.375 87.48C285.197 87.7333 285.037 88.0467 284.897 88.42L283.673 91.7C283.571 91.9933 283.489 92.3 283.425 92.62C283.374 92.9267 283.348 93.2667 283.348 93.64V97.9H283.54V94.46H290.996V97.9ZM285.509 98.98C285.509 99.2333 285.452 99.42 285.337 99.54C285.235 99.6467 285.063 99.7 284.821 99.7H282.01C281.768 99.7 281.589 99.6467 281.475 99.54C281.373 99.42 281.322 99.2333 281.322 98.98V93.7C281.322 93.3 281.379 92.84 281.494 92.32C281.621 91.8 281.812 91.1933 282.067 90.5L283.731 85.96C283.807 85.7333 283.922 85.5667 284.075 85.46C284.241 85.3533 284.451 85.3 284.706 85.3H289.849C290.091 85.3 290.289 85.3533 290.442 85.46C290.608 85.5667 290.729 85.7333 290.805 85.96L292.469 90.5C292.724 91.1933 292.908 91.8 293.023 92.32C293.151 92.84 293.214 93.3 293.214 93.7V98.98C293.214 99.2333 293.157 99.42 293.042 99.54C292.94 99.6467 292.768 99.7 292.526 99.7H289.639C289.384 99.7 289.193 99.6467 289.065 99.54C288.951 99.42 288.893 99.2333 288.893 98.98V96.18H285.509V98.98Z" fill="#EBFF00"/>
<path d="M302.305 92C302.076 92 301.91 91.9467 301.808 91.84C301.706 91.7333 301.547 91.5067 301.33 91.16L298.998 87.44C298.921 87.3067 298.832 87.22 298.73 87.18C298.628 87.1267 298.526 87.1 298.424 87.1H298.099C297.933 87.1 297.806 87.1533 297.716 87.26C297.64 87.3533 297.602 87.5067 297.602 87.72V97.9H297.793V87.72C297.793 87.6133 297.812 87.52 297.85 87.44C297.889 87.3467 297.971 87.3 298.099 87.3H298.386C298.475 87.3 298.551 87.3133 298.615 87.34C298.692 87.3667 298.768 87.4467 298.845 87.58L301.177 91.26C301.407 91.62 301.579 91.8667 301.693 92C301.821 92.1333 302.025 92.2 302.305 92.2C302.586 92.2 302.783 92.1333 302.898 92C303.025 91.8667 303.204 91.62 303.433 91.26L305.766 87.58C305.842 87.4467 305.913 87.3667 305.976 87.34C306.04 87.3133 306.117 87.3 306.206 87.3H306.493C306.62 87.3 306.703 87.3467 306.741 87.44C306.792 87.52 306.818 87.6133 306.818 87.72V97.9H307.009V87.72C307.009 87.5067 306.964 87.3533 306.875 87.26C306.798 87.1533 306.671 87.1 306.493 87.1H306.168C306.066 87.1 305.964 87.1267 305.862 87.18C305.772 87.22 305.69 87.3067 305.613 87.44L303.28 91.16C303.064 91.5067 302.904 91.7333 302.802 91.84C302.7 91.9467 302.535 92 302.305 92ZM299.112 99.7H296.263C296.021 99.7 295.843 99.6467 295.728 99.54C295.626 99.42 295.575 99.2333 295.575 98.98V86.02C295.575 85.7667 295.626 85.5867 295.728 85.48C295.843 85.36 296.021 85.3 296.263 85.3H299.342C299.546 85.3 299.711 85.3467 299.839 85.44C299.979 85.5333 300.106 85.6867 300.221 85.9L301.942 89.16C302.006 89.28 302.057 89.3667 302.095 89.42C302.146 89.4733 302.21 89.5 302.286 89.5H302.458C302.535 89.5 302.592 89.4733 302.63 89.42C302.681 89.3667 302.739 89.28 302.802 89.16L304.504 85.9C304.619 85.6867 304.74 85.5333 304.867 85.44C305.008 85.3467 305.18 85.3 305.384 85.3H308.481C308.723 85.3 308.895 85.36 308.997 85.48C309.112 85.5867 309.169 85.7667 309.169 86.02V98.98C309.169 99.2333 309.112 99.42 308.997 99.54C308.895 99.6467 308.723 99.7 308.481 99.7H305.537C305.294 99.7 305.116 99.6467 305.001 99.54C304.899 99.42 304.848 99.2333 304.848 98.98V91.94L303.72 94.12C303.605 94.3467 303.465 94.5133 303.3 94.62C303.147 94.7133 302.949 94.76 302.707 94.76H301.942C301.7 94.76 301.496 94.7133 301.33 94.62C301.177 94.5133 301.043 94.3467 300.929 94.12L299.801 91.94V98.98C299.801 99.2333 299.743 99.42 299.628 99.54C299.527 99.6467 299.354 99.7 299.112 99.7Z" fill="#EBFF00"/>
<path d="M313.732 93.64C313.732 93.28 313.758 92.9467 313.809 92.64C313.872 92.3333 313.949 92.0467 314.038 91.78L315.262 88.5C315.389 88.1667 315.529 87.8867 315.682 87.66C315.835 87.42 316.103 87.3 316.485 87.3H318.359C318.716 87.3 318.971 87.42 319.124 87.66C319.277 87.8867 319.423 88.1733 319.564 88.52L320.883 91.78C320.972 92.0467 321.042 92.3333 321.093 92.64C321.157 92.9467 321.189 93.28 321.189 93.64V94.26H313.732V93.64ZM316.791 89.5L315.893 92.54H318.894L317.996 89.5C317.945 89.38 317.887 89.2933 317.824 89.24C317.773 89.1867 317.709 89.16 317.633 89.16H317.155C317.078 89.16 317.008 89.1867 316.944 89.24C316.893 89.2933 316.842 89.38 316.791 89.5ZM321.189 97.9H321.38V93.64C321.38 93.2667 321.348 92.9267 321.284 92.62C321.233 92.3 321.157 91.9933 321.055 91.7L319.736 88.44C319.583 88.0533 319.417 87.7333 319.239 87.48C319.073 87.2267 318.78 87.1 318.359 87.1H316.485C316.052 87.1 315.746 87.2267 315.568 87.48C315.389 87.7333 315.23 88.0467 315.09 88.42L313.866 91.7C313.764 91.9933 313.681 92.3 313.617 92.62C313.566 92.9267 313.541 93.2667 313.541 93.64V97.9H313.732V94.46H321.189V97.9ZM315.701 98.98C315.701 99.2333 315.644 99.42 315.529 99.54C315.427 99.6467 315.255 99.7 315.013 99.7H312.202C311.96 99.7 311.782 99.6467 311.667 99.54C311.565 99.42 311.514 99.2333 311.514 98.98V93.7C311.514 93.3 311.571 92.84 311.686 92.32C311.814 91.8 312.005 91.1933 312.26 90.5L313.923 85.96C314 85.7333 314.114 85.5667 314.267 85.46C314.433 85.3533 314.643 85.3 314.898 85.3H320.042C320.284 85.3 320.481 85.3533 320.634 85.46C320.8 85.5667 320.921 85.7333 320.998 85.96L322.661 90.5C322.916 91.1933 323.101 91.8 323.216 92.32C323.343 92.84 323.407 93.3 323.407 93.7V98.98C323.407 99.2333 323.349 99.42 323.235 99.54C323.133 99.6467 322.961 99.7 322.718 99.7H319.831C319.576 99.7 319.385 99.6467 319.258 99.54C319.143 99.42 319.086 99.2333 319.086 98.98V96.18H315.701V98.98Z" fill="#EBFF00"/>
<path d="M332.154 99.7H326.112C325.869 99.7 325.691 99.6467 325.576 99.54C325.474 99.42 325.423 99.2333 325.423 98.98V96.64C325.423 96.3867 325.474 96.2067 325.576 96.1C325.691 95.98 325.869 95.92 326.112 95.92H331.255C331.421 95.92 331.542 95.8667 331.618 95.76C331.707 95.64 331.752 95.5 331.752 95.34C331.752 95.1133 331.707 94.9467 331.618 94.84C331.542 94.7333 331.421 94.6733 331.255 94.66L328.387 94.24C327.495 94.1067 326.774 93.8 326.226 93.32C325.691 92.84 325.423 92.04 325.423 90.92V88.82C325.423 87.6867 325.774 86.82 326.475 86.22C327.176 85.6067 328.145 85.3 329.381 85.3H334.735C334.977 85.3 335.149 85.36 335.251 85.48C335.366 85.5867 335.423 85.7667 335.423 86.02V88.4C335.423 88.6533 335.366 88.84 335.251 88.96C335.149 89.0667 334.977 89.12 334.735 89.12H330.28C330.114 89.12 329.987 89.18 329.897 89.3C329.808 89.4067 329.764 89.5467 329.764 89.72C329.764 89.8933 329.808 90.04 329.897 90.16C329.987 90.28 330.114 90.3467 330.28 90.36L333.129 90.76C334.021 90.8933 334.741 91.2 335.289 91.68C335.837 92.16 336.111 92.96 336.111 94.08V96.18C336.111 97.3133 335.755 98.1867 335.041 98.8C334.34 99.4 333.377 99.7 332.154 99.7ZM333.702 87.1H329.458C328.871 87.1 328.4 87.2733 328.043 87.62C327.686 87.9533 327.507 88.3867 327.507 88.92V90.56C327.507 91.1067 327.609 91.4867 327.813 91.7C328.03 91.9 328.304 92.0333 328.635 92.1L332.67 92.96C333.027 93.04 333.307 93.2 333.511 93.44C333.728 93.6667 333.836 94.0933 333.836 94.72V95.88C333.836 96.4133 333.658 96.8533 333.301 97.2C332.957 97.5333 332.491 97.7 331.905 97.7H327.144V97.9H331.905C332.555 97.9 333.071 97.7133 333.454 97.34C333.836 96.9533 334.027 96.4667 334.027 95.88V94.72C334.027 94.0267 333.9 93.5467 333.645 93.28C333.403 93.0133 333.09 92.84 332.708 92.76L328.674 91.9C328.381 91.8467 328.145 91.7267 327.966 91.54C327.788 91.3533 327.699 91.0267 327.699 90.56V88.92C327.699 88.4533 327.858 88.0667 328.177 87.76C328.495 87.4533 328.922 87.3 329.458 87.3H333.702V87.1Z" fill="#EBFF00"/>
<path d="M340.478 97.9V92.62H345.622C346.323 92.62 346.852 92.7533 347.208 93.02C347.565 93.2867 347.744 93.74 347.744 94.38V97.9H347.935V94.38C347.935 93.6867 347.744 93.1867 347.361 92.88C346.979 92.5733 346.399 92.42 345.622 92.42H344.838L347.036 87.1H346.826L344.627 92.42H340.478V87.1H340.287V97.9H340.478ZM341.855 99.7H338.891C338.649 99.7 338.471 99.6467 338.356 99.54C338.254 99.42 338.203 99.2333 338.203 98.98V86.02C338.203 85.7667 338.254 85.5867 338.356 85.48C338.471 85.36 338.649 85.3 338.891 85.3H341.855C342.097 85.3 342.269 85.36 342.371 85.48C342.486 85.5867 342.543 85.7667 342.543 86.02V90.62H343.308L345.277 85.96C345.367 85.72 345.488 85.5533 345.641 85.46C345.794 85.3533 345.991 85.3 346.233 85.3H349.178C349.395 85.3 349.541 85.36 349.618 85.48C349.694 85.5867 349.688 85.7467 349.598 85.96L347.648 90.62C348.362 90.66 348.929 90.9267 349.35 91.42C349.783 91.9 350 92.54 350 93.34V98.98C350 99.2333 349.943 99.42 349.828 99.54C349.726 99.6467 349.554 99.7 349.312 99.7H346.367C346.125 99.7 345.947 99.6467 345.832 99.54C345.73 99.42 345.679 99.2333 345.679 98.98V95.08C345.679 94.8667 345.628 94.7 345.526 94.58C345.424 94.46 345.271 94.4 345.067 94.4H342.543V98.98C342.543 99.2333 342.486 99.42 342.371 99.54C342.269 99.6467 342.097 99.7 341.855 99.7Z" fill="#EBFF00"/>
<path d="M264 30L249 43L251.774 35.3302L264 30Z" fill="#EFFF3A"/>
<path fill-rule="evenodd" clip-rule="evenodd" d="M263.953 30.18C264.039 30.3357 264.004 30.5345 263.873 30.6473L249.552 42.9202C249.432 43.0231 249.262 43.0269 249.139 42.9293C249.015 42.8318 248.967 42.6573 249.023 42.504L251.672 35.2632C251.706 35.1699 251.774 35.0959 251.861 35.0585L263.533 30.0264C263.689 29.959 263.868 30.0244 263.953 30.18ZM252.251 35.6742L250.119 41.5025L261.646 31.6237L252.251 35.6742Z" fill="#7E8903"/>
<path d="M229.59 30L244.539 42.4607L241.888 35.0611L229.59 30ZM258.957 58.6127L254.944 65.3943L263.531 68L266 58.7631L258.957 58.6127ZM228 58.7631L230.454 68L239.041 65.3943L235.028 58.6127L228 58.7631Z" fill="#D9EC00"/>
<path fill-rule="evenodd" clip-rule="evenodd" d="M229.61 30.181C229.698 30.0243 229.882 29.9587 230.043 30.0267L242.114 35.1229C242.206 35.1618 242.278 35.2399 242.312 35.3378L244.914 42.7887C244.968 42.9444 244.917 43.119 244.788 43.2152C244.659 43.3114 244.485 43.3054 244.363 43.2007L229.69 30.6535C229.556 30.5385 229.521 30.3377 229.61 30.181ZM231.926 31.6152L243.815 41.7824L241.707 35.7448L231.926 31.6152ZM258.436 58.9889C258.501 58.8763 258.618 58.8086 258.744 58.8114L265.656 58.9628C265.764 58.9651 265.865 59.0196 265.93 59.1105C265.995 59.2014 266.016 59.3185 265.988 59.4279L263.564 68.7289C263.54 68.8244 263.479 68.9054 263.397 68.9535C263.314 69.0017 263.217 69.013 263.126 68.9848L254.697 66.361C254.593 66.3285 254.509 66.2472 254.47 66.1409C254.43 66.0345 254.44 65.915 254.497 65.8175L258.436 58.9889ZM235.241 58.8114C235.367 58.8086 235.484 58.8763 235.549 58.9889L239.488 65.8175C239.545 65.915 239.555 66.0345 239.515 66.1409C239.476 66.2472 239.392 66.3285 239.288 66.361L230.859 68.9848C230.768 69.013 230.671 69.0017 230.588 68.9534C230.506 68.9051 230.445 68.824 230.421 68.7283L228.012 59.4273C227.984 59.318 228.005 59.201 228.07 59.1103C228.135 59.0196 228.236 58.9651 228.344 58.9628L235.241 58.8114ZM258.932 59.552L255.333 65.7908L262.982 68.1719L265.192 59.6891L258.932 59.552ZM228.807 59.6891L231.004 68.1717L238.652 65.7908L235.053 59.552L228.807 59.6891Z" fill="#B0BF06"/>
<path d="M238.431 47.8L236 51.7833L244.662 52.2L244.354 42.1167L238.431 47.8ZM255.554 47.8L249.554 42L249.354 52.2L258 51.7833L255.554 47.8ZM238.923 66L244.123 63.25L239.631 59.45L238.923 66ZM249.862 63.25L255.077 66L254.354 59.45L249.862 63.25Z" fill="#DCEE10"/>
<path fill-rule="evenodd" clip-rule="evenodd" d="M249.338 41.028C249.467 40.972 249.615 41.0015 249.716 41.1031L255.524 46.9665C255.546 46.988 255.564 47.0122 255.58 47.0386L257.948 51.0655C258.013 51.1766 258.017 51.3156 257.959 51.4311C257.901 51.5465 257.79 51.6212 257.665 51.6275L249.295 52.0487C249.198 52.0536 249.103 52.016 249.033 51.9448C248.964 51.8736 248.925 51.7752 248.927 51.6731L249.121 41.3616C249.123 41.215 249.209 41.0841 249.338 41.028ZM249.808 42.2196L249.638 51.293L257.036 50.9207L255.004 47.4656L249.808 42.2196ZM244.572 41.1455C244.7 41.2007 244.786 41.3299 244.79 41.4755L245.088 51.669C245.091 51.7718 245.053 51.8713 244.983 51.9433C244.913 52.0154 244.817 52.0536 244.719 52.0487L236.335 51.6275C236.211 51.6212 236.099 51.5468 236.041 51.4315C235.983 51.3163 235.987 51.1775 236.052 51.0664L238.405 47.0395C238.421 47.0124 238.44 46.9875 238.462 46.9656L244.196 41.2201C244.296 41.1195 244.443 41.0903 244.572 41.1455ZM238.981 47.4658L236.962 50.9205L244.373 51.2929L244.111 42.3248L238.981 47.4658ZM239.735 58.6673C239.856 58.6166 239.993 58.6397 240.093 58.7275L244.442 62.5691C244.531 62.6481 244.577 62.7687 244.565 62.8908C244.552 63.0128 244.482 63.1203 244.379 63.1775L239.345 65.9575C239.23 66.021 239.091 66.0128 238.984 65.9362C238.876 65.8595 238.818 65.7269 238.832 65.5914L239.517 58.9698C239.531 58.8343 239.615 58.718 239.735 58.6673ZM254.249 58.6671C254.37 58.7176 254.454 58.8337 254.468 58.9689L255.168 65.5906C255.183 65.7261 255.124 65.8589 255.017 65.9358C254.91 66.0127 254.77 66.0211 254.655 65.9577L249.607 63.1777C249.503 63.1206 249.433 63.0131 249.42 62.891C249.408 62.7689 249.454 62.6482 249.544 62.5691L253.892 58.7275C253.992 58.6398 254.129 58.6166 254.249 58.6671ZM240.145 59.7377L239.602 64.9819L243.589 62.7802L240.145 59.7377ZM250.397 62.7797L254.396 64.982L253.842 59.7364L250.397 62.7797Z" fill="#D9EC00"/>
<path d="M255 65.6274L249.834 63L250.246 66.5191L250.2 68L255 65.6274ZM239 65.6274L243.8 68L243.77 66.5191L244.15 63L239 65.6274Z" fill="#CEDA9E"/>
<path fill-rule="evenodd" clip-rule="evenodd" d="M249.518 63.0641C249.623 62.9874 249.759 62.9789 249.872 63.0421L254.816 65.8092C254.93 65.8729 255.001 65.9991 255 66.1363C254.999 66.2735 254.927 66.3988 254.812 66.4611L250.219 68.9599C250.11 69.0188 249.981 69.0124 249.878 68.9431C249.775 68.8737 249.714 68.7516 249.718 68.6219L249.761 67.0885L249.37 63.4084C249.356 63.2733 249.413 63.1409 249.518 63.0641ZM244.466 63.0631C244.571 63.1391 244.629 63.2707 244.616 63.4054L244.253 67.0888L244.282 68.6256C244.284 68.7546 244.223 68.8755 244.12 68.944C244.018 69.0125 243.889 69.0186 243.781 68.9599L239.188 66.4611C239.073 66.3988 239.001 66.2736 239 66.1365C238.999 65.9994 239.07 65.8732 239.184 65.8094L244.113 63.0423C244.225 62.9792 244.361 62.9872 244.466 63.0631ZM250.128 64.0141L250.448 67.032C250.45 67.0493 250.451 67.0668 250.45 67.0843L250.424 68.0241L253.907 66.1295L250.128 64.0141ZM240.092 66.129L243.582 68.0273L243.564 67.0806C243.564 67.0654 243.565 67.0502 243.566 67.035L243.863 64.0119L240.092 66.129Z" fill="#B3D7BD"/>
<path d="M244.053 57L240 55.569L242.86 54L244.053 57ZM249.932 57L251.125 54L254 55.569L249.932 57Z" fill="#233447"/>
<path fill-rule="evenodd" clip-rule="evenodd" d="M242.388 54.0181C242.477 54.0461 242.549 54.1044 242.587 54.1796L243.806 56.5765C243.861 56.685 243.838 56.8115 243.747 56.8997C243.656 56.988 243.514 57.0217 243.384 56.9859L239.242 55.8425C239.107 55.8053 239.012 55.7005 239.001 55.5778C238.99 55.4551 239.066 55.3391 239.193 55.2847L242.116 54.0311C242.201 53.9948 242.299 53.9901 242.388 54.0181ZM250.597 54.0182C250.686 53.9901 250.784 53.9947 250.868 54.0308L253.806 55.2844C253.933 55.3387 254.01 55.4548 253.999 55.5777C253.988 55.7005 253.893 55.8054 253.758 55.8426L249.601 56.9859C249.471 57.0217 249.329 56.9879 249.238 56.8996C249.147 56.8113 249.124 56.6849 249.179 56.5765L250.398 54.1796C250.437 54.1045 250.508 54.0463 250.597 54.0182ZM250.887 54.7105L250.124 56.2095L252.724 55.4944L250.887 54.7105ZM240.273 55.4943L242.861 56.2087L242.099 54.711L240.273 55.4943Z" fill="#233447"/>
<path d="M239.025 66L239.754 59.3365L235 59.4842L239.025 66ZM254.246 59.3365L254.975 66L259 59.4842L254.246 59.3365ZM257.861 52L249.324 52.4103L250.114 57.1536L251.375 54.2978L254.413 55.7913L257.861 52ZM239.603 55.7913L242.641 54.2978L243.886 57.1536L244.691 52.4103L236.139 52L239.603 55.7913Z" fill="#D7FF38"/>
<path fill-rule="evenodd" clip-rule="evenodd" d="M236.139 51.2106C236.199 51.0763 236.33 50.9933 236.471 51.0004L244.775 51.4186C244.874 51.4236 244.967 51.4732 245.03 51.5549C245.092 51.6365 245.118 51.7424 245.101 51.8457L244.32 56.6796C244.294 56.8392 244.172 56.962 244.019 56.9817C243.866 57.0013 243.719 56.9132 243.657 56.7648L242.594 54.2051L239.971 55.5586C239.832 55.6303 239.665 55.5971 239.56 55.4771L236.198 51.6133C236.102 51.5039 236.079 51.3448 236.139 51.2106ZM257.861 51.2102C257.921 51.3443 257.898 51.5032 257.803 51.6127L254.455 55.4765C254.351 55.5969 254.183 55.6304 254.044 55.5586L251.42 54.2044L250.342 56.7663C250.28 56.9143 250.133 57.0018 249.98 56.9815C249.827 56.9612 249.705 56.8381 249.68 56.6785L248.913 51.8445C248.897 51.7414 248.923 51.6358 248.986 51.5544C249.048 51.473 249.141 51.4236 249.24 51.4186L257.529 51.0004C257.67 50.9933 257.801 51.0761 257.861 51.2102ZM237.282 51.7743L239.898 54.7804L242.614 53.3792C242.699 53.3351 242.798 53.3297 242.887 53.3641C242.976 53.3985 243.048 53.4697 243.086 53.5613L243.829 55.348L244.349 52.1302L237.282 51.7743ZM249.665 52.1303L250.176 55.3515L250.929 53.5598C250.968 53.4686 251.04 53.3979 251.129 53.3638C251.218 53.3297 251.316 53.3353 251.401 53.3792L254.116 54.7801L256.721 51.7743L249.665 52.1303ZM240.22 58.5943C240.289 58.6722 240.322 58.7774 240.311 58.8828L239.603 65.6737C239.587 65.8291 239.479 65.9565 239.334 65.991C239.189 66.0254 239.039 65.9594 238.961 65.8265L235.052 59.1861C234.987 59.0749 234.983 58.9354 235.041 58.8202C235.1 58.705 235.213 58.6315 235.337 58.6275L239.954 58.4769C240.055 58.4736 240.152 58.5165 240.22 58.5943ZM253.78 58.5943C253.848 58.5165 253.945 58.4736 254.046 58.4769L258.663 58.6275C258.787 58.6315 258.9 58.705 258.959 58.8202C259.017 58.9354 259.013 59.0749 258.948 59.1861L255.039 65.8265C254.961 65.9594 254.811 66.0254 254.666 65.991C254.521 65.9565 254.413 65.8291 254.397 65.6737L253.689 58.8828C253.678 58.7774 253.711 58.6722 253.78 58.5943ZM235.962 59.3397L239.021 64.5371L239.575 59.2219L235.962 59.3397ZM254.425 59.2219L254.979 64.5371L258.038 59.3397L254.425 59.2219Z" fill="#B0BF06"/>
<path d="M236 52L239.631 59.0229L239.508 55.5267L236 52ZM254.508 55.5267L254.354 59.0229L258 52L254.508 55.5267ZM244.662 52.3817L243.846 56.7939L244.862 62L245.092 55.145L244.662 52.3817ZM249.354 52.3817L248.938 55.1298L249.123 62L250.154 56.7939L249.354 52.3817Z" fill="#D0E200"/>
<path fill-rule="evenodd" clip-rule="evenodd" d="M257.845 51.064C257.989 51.1681 258.041 51.3697 257.966 51.5379L254.436 59.4374C254.364 59.5984 254.196 59.6832 254.034 59.6402C253.872 59.5973 253.761 59.4385 253.767 59.2602L253.916 55.3276C253.92 55.2393 253.952 55.155 254.008 55.0897L257.388 51.1228C257.506 50.985 257.7 50.96 257.845 51.064ZM236.155 51.0641C236.3 50.9601 236.494 50.9848 236.611 51.1222L240.007 55.0891C240.063 55.1553 240.096 55.241 240.099 55.3307L240.218 59.2632C240.223 59.4411 240.111 59.5987 239.949 59.6407C239.788 59.6827 239.62 59.5976 239.549 59.4368L236.034 51.5374C235.959 51.3693 236.011 51.168 236.155 51.0641ZM237.678 53.4828L239.46 57.4878L239.4 55.494L237.678 53.4828ZM254.614 55.4948L254.539 57.4619L256.305 53.5105L254.614 55.4948ZM249.274 51.4294C249.447 51.4268 249.597 51.5602 249.625 51.7434L250.4 56.7063C250.407 56.7491 250.406 56.7928 250.399 56.8355L249.401 62.6915C249.369 62.881 249.208 63.0138 249.028 62.9989C248.848 62.9839 248.708 62.826 248.704 62.6334L248.525 54.9056C248.524 54.8852 248.526 54.8648 248.528 54.8446L248.93 51.7535C248.954 51.5696 249.1 51.4319 249.274 51.4294ZM244.741 51.4294C244.914 51.4318 245.06 51.5686 245.084 51.7519L245.501 54.8601C245.504 54.8817 245.505 54.9034 245.505 54.9251L245.281 62.6357C245.276 62.8281 245.135 62.9849 244.956 62.999C244.776 63.0131 244.616 62.8799 244.584 62.6905L243.601 56.8346C243.594 56.7918 243.594 56.748 243.6 56.7052L244.39 51.7422C244.419 51.5597 244.568 51.427 244.741 51.4294ZM244.304 56.7664L244.682 59.0216L244.801 54.9345L244.707 54.2333L244.304 56.7664ZM249.31 54.2919L249.229 54.9177L249.322 58.9596L249.696 56.7653L249.31 54.2919Z" fill="#D3FF25"/>
<path d="M249.936 56.453L248.974 62.4223L249.664 63L253.856 59.0088L254 55L249.936 56.453ZM240 55L240.115 59.0088L244.308 63L244.997 62.4223L244.049 56.453L240 55Z" fill="#F2FF5E"/>
<path fill-rule="evenodd" clip-rule="evenodd" d="M254.855 55.0718C254.951 55.141 255.005 55.25 255 55.3638L254.843 59.0221C254.839 59.1203 254.791 59.2122 254.712 59.2754L250.142 62.9178C250.011 63.0222 249.821 63.0277 249.683 62.9312L248.932 62.404C248.819 62.3247 248.763 62.1915 248.789 62.0605L249.837 56.613C249.862 56.4855 249.959 56.3813 250.089 56.3422L254.519 55.0163C254.634 54.9819 254.759 55.0026 254.855 55.0718ZM239.147 55.0709C239.242 55.0024 239.367 54.982 239.481 55.0164L243.895 56.3423C244.026 56.3816 244.123 56.4861 244.147 56.6139L245.18 62.0614C245.205 62.1921 245.149 62.3249 245.037 62.404L244.285 62.9312C244.148 63.0277 243.958 63.0222 243.827 62.9178L239.257 59.2754C239.177 59.2115 239.129 59.1184 239.125 59.0193L239 55.361C238.996 55.2475 239.051 55.1394 239.147 55.0709ZM250.525 56.9455L249.557 61.9718L249.889 62.2048L254.111 58.8398L254.24 55.8334L250.525 56.9455ZM239.756 55.8326L243.459 56.9451L244.412 61.9714L244.08 62.2048L239.859 58.8409L239.756 55.8326Z" fill="#C6D525"/>
<path d="M250.2 68.4327L250.246 66.9143L249.865 66.5551H244.12L243.77 66.9143L243.8 68.4327L239 66L240.676 67.4694L244.074 70H249.91L253.324 67.4694L255 66L250.2 68.4327Z" fill="#DAE2BA"/>
<path fill-rule="evenodd" clip-rule="evenodd" d="M239.06 65.1658C239.157 65.008 239.346 64.9547 239.501 65.0414L243.582 67.3336L243.564 66.3562C243.562 66.2551 243.597 66.1574 243.661 66.0849L243.997 65.704C244.062 65.6303 244.151 65.5887 244.244 65.5887H249.741C249.83 65.5887 249.915 65.626 249.979 65.6928L250.343 66.0738C250.414 66.148 250.453 66.2521 250.45 66.36L250.424 67.3303L254.499 65.0414C254.654 64.9547 254.843 65.008 254.94 65.1658C255.038 65.3237 255.014 65.5368 254.884 65.6632L253.279 67.2215C253.272 67.2283 253.265 67.2348 253.258 67.241L249.991 69.9247C249.932 69.9736 249.859 70 249.785 70H244.2C244.126 70 244.053 69.9734 243.994 69.9242L240.742 67.2405C240.735 67.2345 240.727 67.2281 240.721 67.2215L239.116 65.6632C238.986 65.5368 238.962 65.3237 239.06 65.1658ZM241.865 67.2204L244.315 69.242H249.671L252.125 67.226L250.219 68.2964C250.11 68.3573 249.981 68.3507 249.878 68.279C249.775 68.2074 249.714 68.0814 249.718 67.9475L249.757 66.5068L249.604 66.3467H244.39L244.256 66.499L244.282 67.9513C244.284 68.0845 244.223 68.2093 244.12 68.2801C244.018 68.3508 243.889 68.357 243.781 68.2964L241.865 67.2204Z" fill="#B7C09E"/>
<path d="M249.619 62.6496L248.941 62H245.031L244.353 62.6496L244 67L244.325 66.5669H249.647L250 67L249.619 62.6496Z" fill="#161616"/>
<path fill-rule="evenodd" clip-rule="evenodd" d="M244.224 62.0723C244.284 62.0254 244.357 62 244.432 62H248.538C248.613 62 248.686 62.0254 248.747 62.0723L249.458 62.6264C249.536 62.6871 249.587 62.779 249.598 62.8803L249.998 66.5911C250.014 66.7446 249.938 66.8926 249.806 66.9614C249.674 67.0303 249.516 67.0054 249.409 66.899L249.14 66.6306H243.839L243.601 66.8882C243.497 67.0008 243.337 67.0318 243.202 66.9654C243.067 66.8991 242.986 66.75 243.002 66.5941L243.373 62.8833C243.383 62.7809 243.433 62.6877 243.512 62.6264L244.224 62.0723ZM243.776 65.8955H249.218L248.919 63.1217L248.423 62.7351H244.548L244.053 63.1206L243.776 65.8955Z" fill="#161616"/>
<path d="M264.733 43.339L266 36.4237L264.107 30L249.772 42.1017L255.285 47.4068L263.079 50L264.808 47.7119L264.063 47.1017L265.255 45.8644L264.331 45.0508L265.523 44.0169L264.733 43.339ZM228 36.4237L229.267 43.339L228.462 44.0169L229.654 45.0508L228.745 45.8644L229.937 47.1017L229.192 47.7119L230.906 50L238.7 47.4068L244.213 42.1017L229.878 30L228 36.4237Z" fill="#7E8903"/>
<path fill-rule="evenodd" clip-rule="evenodd" d="M229.142 30.0158C229.255 29.981 229.377 30.0045 229.468 30.0785L243.914 41.7472C243.995 41.8126 244.043 41.9104 244.046 42.015C244.05 42.1195 244.008 42.2203 243.931 42.2907L238.375 47.406C238.337 47.4411 238.292 47.4673 238.243 47.4829L230.389 49.9834C230.249 50.0281 230.096 49.9806 230.004 49.864L228.278 47.6577C228.219 47.5828 228.192 47.4875 228.204 47.3928C228.215 47.2981 228.264 47.212 228.338 47.1534L228.769 46.8158L227.857 45.9096C227.786 45.8391 227.747 45.7418 227.751 45.6414C227.755 45.5411 227.8 45.4469 227.876 45.3819L228.468 44.8745L227.595 44.1495C227.512 44.081 227.465 43.9786 227.466 43.8707C227.466 43.7629 227.515 43.6611 227.599 43.5938L228.242 43.075L227.006 36.6195C226.995 36.5619 226.999 36.5024 227.016 36.4463L228.908 30.2524C228.942 30.1392 229.03 30.0506 229.142 30.0158ZM263.842 30.0157C263.954 30.0503 264.042 30.1386 264.077 30.2516L265.984 36.4455C266.001 36.5018 266.005 36.5616 265.994 36.6195L264.757 43.0772L265.389 43.5958C265.471 43.6636 265.519 43.7651 265.519 43.8723C265.52 43.9796 265.472 44.0814 265.39 44.1495L264.519 44.8722L265.122 45.38C265.199 45.4447 265.245 45.5391 265.249 45.64C265.253 45.7408 265.215 45.8387 265.143 45.9096L264.231 46.8158L264.662 47.1534C264.737 47.2121 264.785 47.2986 264.796 47.3935C264.807 47.4885 264.781 47.5841 264.721 47.6589L262.98 49.8651C262.888 49.9809 262.736 50.0279 262.596 49.9834L254.742 47.4829C254.693 47.4673 254.648 47.4411 254.61 47.406L249.054 42.2907C248.977 42.2203 248.935 42.1195 248.939 42.015C248.942 41.9104 248.99 41.8126 249.071 41.7472L263.517 30.0785C263.608 30.0045 263.73 29.981 263.842 30.0157ZM249.838 42.0443L255.03 46.8244L262.577 49.2272L263.943 47.4964L263.476 47.1302C263.395 47.0669 263.345 46.9715 263.339 46.8686C263.333 46.7656 263.372 46.665 263.445 46.5927L264.367 45.6764L263.736 45.1447C263.655 45.0765 263.609 44.9753 263.609 44.8688C263.61 44.7623 263.657 44.6615 263.738 44.5939L264.605 43.8747L264.145 43.4969C264.044 43.4137 263.996 43.2811 264.021 43.1517L265.28 36.572L263.554 30.9649L249.838 42.0443ZM229.432 30.9657L227.719 36.5716L228.979 43.1517C229.004 43.2822 228.955 43.416 228.852 43.499L228.383 43.8773L229.247 44.5939C229.328 44.6612 229.375 44.7614 229.376 44.8674C229.377 44.9734 229.331 45.0743 229.251 45.1429L228.63 45.6741L229.555 46.5927C229.628 46.665 229.667 46.7656 229.661 46.8686C229.655 46.9715 229.605 47.0669 229.524 47.1302L229.056 47.4973L230.409 49.2268L237.955 46.8244L243.147 42.0443L229.432 30.9657Z" fill="#CCFF00"/>
<path d="M263.334 49.6347L255.413 47.0816L257.821 51.0698L254.232 58.746L258.957 58.6792H266L263.334 49.6347ZM238.556 47.0816L230.635 49.6347L228 58.6792H235.028L239.738 58.746L236.163 51.0698L238.556 47.0816ZM249.31 51.487L249.809 41.8585L252.112 35H241.888L244.16 41.8585L244.69 51.487L244.872 54.5241L244.887 62H249.083L249.113 54.5241L249.31 51.487Z" fill="#EBFF00"/>
<path fill-rule="evenodd" clip-rule="evenodd" d="M241.698 35.1538C241.764 35.0573 241.87 35 241.983 35H252.017C252.131 35 252.237 35.0575 252.303 35.1544C252.369 35.2514 252.386 35.3758 252.349 35.4884L250.105 42.3649L249.617 52.0404L249.425 55.0956L249.395 62.6327C249.394 62.8358 249.237 63 249.044 63H244.926C244.733 63 244.576 62.8353 244.575 62.6319L244.56 55.0943L244.383 52.0386L244.383 52.0368L243.865 42.3647L241.65 35.487C241.614 35.3744 241.632 35.2504 241.698 35.1538ZM242.472 35.7376L244.545 42.1757C244.555 42.2072 244.561 42.24 244.563 42.2732L245.083 51.9935L245.083 51.9953L245.262 55.0601C245.262 55.0674 245.262 55.0746 245.262 55.0819L245.277 62.2624H248.694L248.723 55.0811C248.723 55.0735 248.723 55.0659 248.724 55.0583L248.917 51.9942L249.407 42.2744C249.409 42.2403 249.415 42.2066 249.426 42.1743L251.526 35.7376H242.472ZM238.989 47.3407C239.079 47.462 239.088 47.6293 239.012 47.7605L236.762 51.617L240.189 59.1871C240.241 59.3022 240.233 59.4374 240.167 59.5447C240.102 59.652 239.988 59.7161 239.867 59.7143L235.249 59.647H228.351C228.24 59.647 228.136 59.592 228.07 59.4986C228.003 59.4053 227.983 59.2845 228.015 59.1729L230.601 50.0406C230.634 49.9232 230.721 49.8309 230.832 49.794L238.607 47.2161C238.746 47.1698 238.899 47.2194 238.989 47.3407ZM254.981 47.3411C255.071 47.2196 255.224 47.1697 255.364 47.2161L263.138 49.794C263.249 49.8308 263.335 49.9226 263.369 50.0394L265.985 59.1718C266.017 59.2835 265.997 59.4045 265.931 59.4982C265.864 59.5918 265.76 59.647 265.649 59.647H258.736L254.103 59.7143C253.982 59.7161 253.868 59.6518 253.803 59.5444C253.737 59.437 253.729 59.3017 253.782 59.1866L257.222 51.6173L254.959 47.7614C254.882 47.6303 254.891 47.4627 254.981 47.3411ZM231.221 50.4386L228.822 58.9093H235.254L239.313 58.9685L236.047 51.7532C235.996 51.6406 236.002 51.5085 236.064 51.4021L237.922 48.2165L231.221 50.4386ZM256.052 48.2178L257.92 51.4012C257.983 51.5079 257.99 51.6407 257.938 51.7538L254.659 58.9686L258.736 58.9093L265.177 58.9093L262.75 50.4388L256.052 48.2178Z" fill="#B0BF06"/>
<path d="M256.076 8.25369L451.886 100.308C460.104 104.171 457.351 116.5 448.269 116.5H246.935H52.1126C43.0923 116.5 40.2833 104.301 48.395 100.356L237.526 8.37605C243.373 5.53256 250.193 5.48757 256.076 8.25369Z" stroke="#EBFF00" stroke-width="7"/>
</svg>
