<svg width="494" height="120" viewBox="0 0 494 120" fill="none" xmlns="http://www.w3.org/2000/svg">
<path d="M149.369 98.7H144.704C143.11 98.7 141.925 98.3667 141.147 97.7C140.382 97.0333 140 96.0067 140 94.62V88.4C140 87.0133 140.382 85.9867 141.147 85.32C141.925 84.64 143.11 84.3 144.704 84.3H149.369C149.611 84.3 149.783 84.36 149.885 84.48C150 84.5867 150.057 84.7667 150.057 85.02V87.44C150.057 87.6933 150 87.88 149.885 88C149.783 88.1067 149.611 88.16 149.369 88.16H145.526C145.131 88.16 144.837 88.2467 144.646 88.42C144.455 88.58 144.359 88.8267 144.359 89.16V93.92C144.359 94.2533 144.455 94.5 144.646 94.66C144.837 94.8067 145.131 94.88 145.526 94.88H149.369C149.611 94.88 149.783 94.94 149.885 95.06C150 95.1667 150.057 95.3467 150.057 95.6V97.98C150.057 98.2333 150 98.42 149.885 98.54C149.783 98.6467 149.611 98.7 149.369 98.7ZM148.317 96.7H145.124C143.977 96.7 143.212 96.52 142.83 96.16C142.447 95.8 142.256 95.1867 142.256 94.32V88.72C142.256 87.84 142.454 87.22 142.849 86.86C143.244 86.4867 144.002 86.3 145.124 86.3H148.317V86.1H145.124C143.9 86.1 143.085 86.3 142.677 86.7C142.269 87.1 142.065 87.7733 142.065 88.72V94.32C142.065 95.24 142.263 95.9 142.658 96.3C143.066 96.7 143.888 96.9 145.124 96.9H148.317V96.7Z" fill="#EBFF00"/>
<path d="M163.786 94.92C163.786 95.5333 163.697 96.0933 163.519 96.6C163.353 97.0933 163.047 97.52 162.601 97.88C162.167 98.2267 161.562 98.5 160.784 98.7C160.02 98.9 159.044 99 157.859 99C156.674 99 155.692 98.9 154.915 98.7C154.137 98.5 153.525 98.2267 153.079 97.88C152.646 97.52 152.34 97.0933 152.161 96.6C151.996 96.0933 151.913 95.5333 151.913 94.92V88.1C151.913 87.4867 151.996 86.9333 152.161 86.44C152.34 85.9333 152.646 85.5 153.079 85.14C153.525 84.78 154.137 84.5 154.915 84.3C155.692 84.1 156.674 84 157.859 84C159.044 84 160.02 84.1 160.784 84.3C161.562 84.5 162.167 84.78 162.601 85.14C163.047 85.5 163.353 85.9333 163.519 86.44C163.697 86.9333 163.786 87.4867 163.786 88.1V94.92ZM161.702 94.46V88.56C161.702 87.76 161.428 87.1133 160.88 86.62C160.332 86.1133 159.312 85.86 157.821 85.86C156.329 85.86 155.316 86.1133 154.781 86.62C154.245 87.1133 153.978 87.76 153.978 88.56V94.46C153.978 95.26 154.245 95.9133 154.781 96.42C155.316 96.9133 156.329 97.16 157.821 97.16C159.312 97.16 160.332 96.9133 160.88 96.42C161.428 95.9133 161.702 95.26 161.702 94.46ZM154.169 94.46V88.56C154.169 87.8133 154.424 87.2133 154.934 86.76C155.443 86.2933 156.406 86.06 157.821 86.06C159.236 86.06 160.204 86.2933 160.727 86.76C161.25 87.2133 161.511 87.8133 161.511 88.56V94.46C161.511 95.2067 161.25 95.8133 160.727 96.28C160.204 96.7333 159.236 96.96 157.821 96.96C156.406 96.96 155.443 96.7333 154.934 96.28C154.424 95.8133 154.169 95.2067 154.169 94.46ZM156.253 94.2C156.253 94.4667 156.349 94.6933 156.54 94.88C156.731 95.0533 157.171 95.14 157.859 95.14C158.547 95.14 158.987 95.0533 159.178 94.88C159.369 94.6933 159.465 94.4667 159.465 94.2V88.82C159.465 88.5667 159.369 88.3533 159.178 88.18C158.987 87.9933 158.547 87.9 157.859 87.9C157.171 87.9 156.731 87.9933 156.54 88.18C156.349 88.3533 156.253 88.5667 156.253 88.82V94.2Z" fill="#EBFF00"/>
<path d="M168.744 86.26C168.68 86.1933 168.629 86.1467 168.591 86.12C168.553 86.0933 168.508 86.08 168.457 86.08C168.406 86.08 168.355 86.1 168.304 86.14C168.253 86.18 168.228 86.24 168.228 86.32V96.9H168.419V86.36C168.419 86.3467 168.419 86.3333 168.419 86.32C168.432 86.3067 168.445 86.3 168.457 86.3C168.47 86.3 168.483 86.3067 168.496 86.32C168.521 86.3333 168.54 86.3467 168.553 86.36L175.78 94.84V96.9H175.971V86.1H175.78V94.54L168.744 86.26ZM169.777 98.7H166.909C166.666 98.7 166.488 98.6467 166.373 98.54C166.271 98.42 166.22 98.2333 166.22 97.98V85.02C166.22 84.7667 166.271 84.5867 166.373 84.48C166.488 84.36 166.666 84.3 166.909 84.3H168.897C169.139 84.3 169.343 84.34 169.509 84.42C169.687 84.5 169.859 84.64 170.025 84.84L173.734 89.28V85.02C173.734 84.7667 173.785 84.5867 173.887 84.48C174.002 84.36 174.181 84.3 174.423 84.3H177.291C177.533 84.3 177.705 84.36 177.807 84.48C177.922 84.5867 177.979 84.7667 177.979 85.02V97.98C177.979 98.2333 177.922 98.42 177.807 98.54C177.705 98.6467 177.533 98.7 177.291 98.7H174.423C174.181 98.7 174.002 98.6467 173.887 98.54C173.785 98.42 173.734 98.2333 173.734 97.98V95.52L170.465 91.38V97.98C170.465 98.2333 170.408 98.42 170.293 98.54C170.191 98.6467 170.019 98.7 169.777 98.7Z" fill="#EBFF00"/>
<path d="M183.14 86.26C183.076 86.1933 183.025 86.1467 182.987 86.12C182.949 86.0933 182.904 86.08 182.853 86.08C182.802 86.08 182.751 86.1 182.7 86.14C182.649 86.18 182.624 86.24 182.624 86.32V96.9H182.815V86.36C182.815 86.3467 182.815 86.3333 182.815 86.32C182.828 86.3067 182.841 86.3 182.853 86.3C182.866 86.3 182.879 86.3067 182.892 86.32C182.917 86.3333 182.936 86.3467 182.949 86.36L190.176 94.84V96.9H190.367V86.1H190.176V94.54L183.14 86.26ZM184.173 98.7H181.305C181.062 98.7 180.884 98.6467 180.769 98.54C180.667 98.42 180.616 98.2333 180.616 97.98V85.02C180.616 84.7667 180.667 84.5867 180.769 84.48C180.884 84.36 181.062 84.3 181.305 84.3H183.293C183.535 84.3 183.739 84.34 183.905 84.42C184.083 84.5 184.255 84.64 184.421 84.84L188.13 89.28V85.02C188.13 84.7667 188.181 84.5867 188.283 84.48C188.398 84.36 188.577 84.3 188.819 84.3H191.687C191.929 84.3 192.101 84.36 192.203 84.48C192.318 84.5867 192.375 84.7667 192.375 85.02V97.98C192.375 98.2333 192.318 98.42 192.203 98.54C192.101 98.6467 191.929 98.7 191.687 98.7H188.819C188.577 98.7 188.398 98.6467 188.283 98.54C188.181 98.42 188.13 98.2333 188.13 97.98V95.52L184.861 91.38V97.98C184.861 98.2333 184.804 98.42 184.689 98.54C184.587 98.6467 184.415 98.7 184.173 98.7Z" fill="#EBFF00"/>
<path d="M204.572 98.7H195.701C195.458 98.7 195.28 98.6467 195.165 98.54C195.063 98.42 195.012 98.2333 195.012 97.98V85.02C195.012 84.7667 195.063 84.5867 195.165 84.48C195.28 84.36 195.458 84.3 195.701 84.3H204.572C204.815 84.3 204.987 84.36 205.089 84.48C205.203 84.5867 205.261 84.7667 205.261 85.02V87.36C205.261 87.6133 205.203 87.8 205.089 87.92C204.987 88.0267 204.815 88.08 204.572 88.08H199.295V89.62H203.024C203.266 89.62 203.438 89.68 203.54 89.8C203.655 89.9067 203.712 90.0867 203.712 90.34V92.48C203.712 92.7333 203.655 92.92 203.54 93.04C203.438 93.1467 203.266 93.2 203.024 93.2H199.295V94.92H204.572C204.815 94.92 204.987 94.98 205.089 95.1C205.203 95.2067 205.261 95.3867 205.261 95.64V97.98C205.261 98.2333 205.203 98.42 205.089 98.54C204.987 98.6467 204.815 98.7 204.572 98.7ZM203.54 96.7H197.288V91.52H201.991V91.32H197.288V86.3H203.54V86.1H197.096V96.9H203.54V96.7Z" fill="#EBFF00"/>
<path d="M216.588 98.7H211.922C210.329 98.7 209.144 98.3667 208.366 97.7C207.601 97.0333 207.219 96.0067 207.219 94.62V88.4C207.219 87.0133 207.601 85.9867 208.366 85.32C209.144 84.64 210.329 84.3 211.922 84.3H216.588C216.83 84.3 217.002 84.36 217.104 84.48C217.219 84.5867 217.276 84.7667 217.276 85.02V87.44C217.276 87.6933 217.219 87.88 217.104 88C217.002 88.1067 216.83 88.16 216.588 88.16H212.744C212.349 88.16 212.056 88.2467 211.865 88.42C211.674 88.58 211.578 88.8267 211.578 89.16V93.92C211.578 94.2533 211.674 94.5 211.865 94.66C212.056 94.8067 212.349 94.88 212.744 94.88H216.588C216.83 94.88 217.002 94.94 217.104 95.06C217.219 95.1667 217.276 95.3467 217.276 95.6V97.98C217.276 98.2333 217.219 98.42 217.104 98.54C217.002 98.6467 216.83 98.7 216.588 98.7ZM215.536 96.7H212.343C211.196 96.7 210.431 96.52 210.049 96.16C209.666 95.8 209.475 95.1867 209.475 94.32V88.72C209.475 87.84 209.673 87.22 210.068 86.86C210.463 86.4867 211.221 86.3 212.343 86.3H215.536V86.1H212.343C211.119 86.1 210.303 86.3 209.896 86.7C209.488 87.1 209.284 87.7733 209.284 88.72V94.32C209.284 95.24 209.481 95.9 209.876 96.3C210.284 96.7 211.107 96.9 212.343 96.9H215.536V96.7Z" fill="#EBFF00"/>
<path d="M225.936 98.7H222.839C222.596 98.7 222.418 98.6467 222.303 98.54C222.201 98.42 222.15 98.2333 222.15 97.98V88.16H219.34C219.097 88.16 218.919 88.1067 218.804 88C218.702 87.88 218.651 87.6933 218.651 87.44V85.02C218.651 84.7667 218.702 84.5867 218.804 84.48C218.919 84.36 219.097 84.3 219.34 84.3H229.435C229.677 84.3 229.849 84.36 229.951 84.48C230.066 84.5867 230.123 84.7667 230.123 85.02V87.44C230.123 87.6933 230.066 87.88 229.951 88C229.849 88.1067 229.677 88.16 229.435 88.16H226.624V97.98C226.624 98.2333 226.567 98.42 226.452 98.54C226.35 98.6467 226.178 98.7 225.936 98.7ZM224.292 96.9H224.483V86.3H228.402V86.1H220.372V86.3H224.292V96.9Z" fill="#EBFF00"/>
<path d="M242.821 91C242.591 91 242.426 90.9467 242.324 90.84C242.222 90.7333 242.062 90.5067 241.846 90.16L239.513 86.44C239.436 86.3067 239.347 86.22 239.245 86.18C239.143 86.1267 239.041 86.1 238.939 86.1H238.614C238.449 86.1 238.321 86.1533 238.232 86.26C238.155 86.3533 238.117 86.5067 238.117 86.72V96.9H238.308V86.72C238.308 86.6133 238.328 86.52 238.366 86.44C238.404 86.3467 238.487 86.3 238.614 86.3H238.901C238.99 86.3 239.067 86.3133 239.131 86.34C239.207 86.3667 239.284 86.4467 239.36 86.58L241.693 90.26C241.922 90.62 242.094 90.8667 242.209 91C242.336 91.1333 242.54 91.2 242.821 91.2C243.101 91.2 243.299 91.1333 243.413 91C243.541 90.8667 243.719 90.62 243.949 90.26L246.281 86.58C246.358 86.4467 246.428 86.3667 246.492 86.34C246.555 86.3133 246.632 86.3 246.721 86.3H247.008C247.135 86.3 247.218 86.3467 247.257 86.44C247.308 86.52 247.333 86.6133 247.333 86.72V96.9H247.524V86.72C247.524 86.5067 247.48 86.3533 247.39 86.26C247.314 86.1533 247.186 86.1 247.008 86.1H246.683C246.581 86.1 246.479 86.1267 246.377 86.18C246.288 86.22 246.205 86.3067 246.128 86.44L243.796 90.16C243.579 90.5067 243.42 90.7333 243.318 90.84C243.216 90.9467 243.05 91 242.821 91ZM239.628 98.7H236.779C236.537 98.7 236.358 98.6467 236.243 98.54C236.141 98.42 236.09 98.2333 236.09 97.98V85.02C236.09 84.7667 236.141 84.5867 236.243 84.48C236.358 84.36 236.537 84.3 236.779 84.3H239.857C240.061 84.3 240.227 84.3467 240.354 84.44C240.494 84.5333 240.622 84.6867 240.737 84.9L242.457 88.16C242.521 88.28 242.572 88.3667 242.61 88.42C242.661 88.4733 242.725 88.5 242.802 88.5H242.974C243.05 88.5 243.108 88.4733 243.146 88.42C243.197 88.3667 243.254 88.28 243.318 88.16L245.02 84.9C245.134 84.6867 245.255 84.5333 245.383 84.44C245.523 84.3467 245.695 84.3 245.899 84.3H248.996C249.239 84.3 249.411 84.36 249.513 84.48C249.627 84.5867 249.685 84.7667 249.685 85.02V97.98C249.685 98.2333 249.627 98.42 249.513 98.54C249.411 98.6467 249.239 98.7 248.996 98.7H246.052C245.81 98.7 245.631 98.6467 245.517 98.54C245.415 98.42 245.364 98.2333 245.364 97.98V90.94L244.236 93.12C244.121 93.3467 243.981 93.5133 243.815 93.62C243.662 93.7133 243.464 93.76 243.222 93.76H242.457C242.215 93.76 242.011 93.7133 241.846 93.62C241.693 93.5133 241.559 93.3467 241.444 93.12L240.316 90.94V97.98C240.316 98.2333 240.259 98.42 240.144 98.54C240.042 98.6467 239.87 98.7 239.628 98.7Z" fill="#EBFF00"/>
<path d="M261.876 98.7H253.005C252.762 98.7 252.584 98.6467 252.469 98.54C252.367 98.42 252.316 98.2333 252.316 97.98V85.02C252.316 84.7667 252.367 84.5867 252.469 84.48C252.584 84.36 252.762 84.3 253.005 84.3H261.876C262.119 84.3 262.291 84.36 262.393 84.48C262.507 84.5867 262.565 84.7667 262.565 85.02V87.36C262.565 87.6133 262.507 87.8 262.393 87.92C262.291 88.0267 262.119 88.08 261.876 88.08H256.599V89.62H260.328C260.57 89.62 260.742 89.68 260.844 89.8C260.959 89.9067 261.016 90.0867 261.016 90.34V92.48C261.016 92.7333 260.959 92.92 260.844 93.04C260.742 93.1467 260.57 93.2 260.328 93.2H256.599V94.92H261.876C262.119 94.92 262.291 94.98 262.393 95.1C262.507 95.2067 262.565 95.3867 262.565 95.64V97.98C262.565 98.2333 262.507 98.42 262.393 98.54C262.291 98.6467 262.119 98.7 261.876 98.7ZM260.844 96.7H254.592V91.52H259.295V91.32H254.592V86.3H260.844V86.1H254.4V96.9H260.844V96.7Z" fill="#EBFF00"/>
<path d="M271.327 98.7H268.23C267.988 98.7 267.809 98.6467 267.695 98.54C267.593 98.42 267.542 98.2333 267.542 97.98V88.16H264.731C264.489 88.16 264.31 88.1067 264.196 88C264.094 87.88 264.043 87.6933 264.043 87.44V85.02C264.043 84.7667 264.094 84.5867 264.196 84.48C264.31 84.36 264.489 84.3 264.731 84.3H274.826C275.068 84.3 275.241 84.36 275.343 84.48C275.457 84.5867 275.515 84.7667 275.515 85.02V87.44C275.515 87.6933 275.457 87.88 275.343 88C275.241 88.1067 275.068 88.16 274.826 88.16H272.016V97.98C272.016 98.2333 271.958 98.42 271.844 98.54C271.742 98.6467 271.57 98.7 271.327 98.7ZM269.683 96.9H269.874V86.3H273.794V86.1H265.763V86.3H269.683V96.9Z" fill="#EBFF00"/>
<path d="M278.54 92.64C278.54 92.28 278.565 91.9467 278.616 91.64C278.68 91.3333 278.756 91.0467 278.846 90.78L280.069 87.5C280.197 87.1667 280.337 86.8867 280.49 86.66C280.643 86.42 280.91 86.3 281.293 86.3H283.167C283.524 86.3 283.778 86.42 283.931 86.66C284.084 86.8867 284.231 87.1733 284.371 87.52L285.69 90.78C285.78 91.0467 285.85 91.3333 285.901 91.64C285.965 91.9467 285.996 92.28 285.996 92.64V93.26H278.54V92.64ZM281.599 88.5L280.7 91.54H283.702L282.803 88.5C282.752 88.38 282.695 88.2933 282.631 88.24C282.58 88.1867 282.517 88.16 282.44 88.16H281.962C281.886 88.16 281.815 88.1867 281.752 88.24C281.701 88.2933 281.65 88.38 281.599 88.5ZM285.996 96.9H286.188V92.64C286.188 92.2667 286.156 91.9267 286.092 91.62C286.041 91.3 285.965 90.9933 285.863 90.7L284.543 87.44C284.39 87.0533 284.225 86.7333 284.046 86.48C283.88 86.2267 283.587 86.1 283.167 86.1H281.293C280.859 86.1 280.554 86.2267 280.375 86.48C280.197 86.7333 280.037 87.0467 279.897 87.42L278.673 90.7C278.571 90.9933 278.489 91.3 278.425 91.62C278.374 91.9267 278.348 92.2667 278.348 92.64V96.9H278.54V93.46H285.996V96.9ZM280.509 97.98C280.509 98.2333 280.452 98.42 280.337 98.54C280.235 98.6467 280.063 98.7 279.821 98.7H277.01C276.768 98.7 276.589 98.6467 276.475 98.54C276.373 98.42 276.322 98.2333 276.322 97.98V92.7C276.322 92.3 276.379 91.84 276.494 91.32C276.621 90.8 276.812 90.1933 277.067 89.5L278.731 84.96C278.807 84.7333 278.922 84.5667 279.075 84.46C279.241 84.3533 279.451 84.3 279.706 84.3H284.849C285.091 84.3 285.289 84.3533 285.442 84.46C285.608 84.5667 285.729 84.7333 285.805 84.96L287.469 89.5C287.724 90.1933 287.908 90.8 288.023 91.32C288.151 91.84 288.214 92.3 288.214 92.7V97.98C288.214 98.2333 288.157 98.42 288.042 98.54C287.94 98.6467 287.768 98.7 287.526 98.7H284.639C284.384 98.7 284.193 98.6467 284.065 98.54C283.951 98.42 283.893 98.2333 283.893 97.98V95.18H280.509V97.98Z" fill="#EBFF00"/>
<path d="M297.305 91C297.076 91 296.91 90.9467 296.808 90.84C296.706 90.7333 296.547 90.5067 296.33 90.16L293.998 86.44C293.921 86.3067 293.832 86.22 293.73 86.18C293.628 86.1267 293.526 86.1 293.424 86.1H293.099C292.933 86.1 292.806 86.1533 292.716 86.26C292.64 86.3533 292.602 86.5067 292.602 86.72V96.9H292.793V86.72C292.793 86.6133 292.812 86.52 292.85 86.44C292.889 86.3467 292.971 86.3 293.099 86.3H293.386C293.475 86.3 293.551 86.3133 293.615 86.34C293.692 86.3667 293.768 86.4467 293.845 86.58L296.177 90.26C296.407 90.62 296.579 90.8667 296.693 91C296.821 91.1333 297.025 91.2 297.305 91.2C297.586 91.2 297.783 91.1333 297.898 91C298.025 90.8667 298.204 90.62 298.433 90.26L300.766 86.58C300.842 86.4467 300.913 86.3667 300.976 86.34C301.04 86.3133 301.117 86.3 301.206 86.3H301.493C301.62 86.3 301.703 86.3467 301.741 86.44C301.792 86.52 301.818 86.6133 301.818 86.72V96.9H302.009V86.72C302.009 86.5067 301.964 86.3533 301.875 86.26C301.798 86.1533 301.671 86.1 301.493 86.1H301.168C301.066 86.1 300.964 86.1267 300.862 86.18C300.772 86.22 300.69 86.3067 300.613 86.44L298.28 90.16C298.064 90.5067 297.904 90.7333 297.802 90.84C297.7 90.9467 297.535 91 297.305 91ZM294.112 98.7H291.263C291.021 98.7 290.843 98.6467 290.728 98.54C290.626 98.42 290.575 98.2333 290.575 97.98V85.02C290.575 84.7667 290.626 84.5867 290.728 84.48C290.843 84.36 291.021 84.3 291.263 84.3H294.342C294.546 84.3 294.711 84.3467 294.839 84.44C294.979 84.5333 295.106 84.6867 295.221 84.9L296.942 88.16C297.006 88.28 297.057 88.3667 297.095 88.42C297.146 88.4733 297.21 88.5 297.286 88.5H297.458C297.535 88.5 297.592 88.4733 297.63 88.42C297.681 88.3667 297.739 88.28 297.802 88.16L299.504 84.9C299.619 84.6867 299.74 84.5333 299.867 84.44C300.008 84.3467 300.18 84.3 300.384 84.3H303.481C303.723 84.3 303.895 84.36 303.997 84.48C304.112 84.5867 304.169 84.7667 304.169 85.02V97.98C304.169 98.2333 304.112 98.42 303.997 98.54C303.895 98.6467 303.723 98.7 303.481 98.7H300.537C300.294 98.7 300.116 98.6467 300.001 98.54C299.899 98.42 299.848 98.2333 299.848 97.98V90.94L298.72 93.12C298.605 93.3467 298.465 93.5133 298.3 93.62C298.147 93.7133 297.949 93.76 297.707 93.76H296.942C296.7 93.76 296.496 93.7133 296.33 93.62C296.177 93.5133 296.043 93.3467 295.929 93.12L294.801 90.94V97.98C294.801 98.2333 294.743 98.42 294.628 98.54C294.527 98.6467 294.354 98.7 294.112 98.7Z" fill="#EBFF00"/>
<path d="M308.732 92.64C308.732 92.28 308.758 91.9467 308.809 91.64C308.872 91.3333 308.949 91.0467 309.038 90.78L310.262 87.5C310.389 87.1667 310.529 86.8867 310.682 86.66C310.835 86.42 311.103 86.3 311.485 86.3H313.359C313.716 86.3 313.971 86.42 314.124 86.66C314.277 86.8867 314.423 87.1733 314.564 87.52L315.883 90.78C315.972 91.0467 316.042 91.3333 316.093 91.64C316.157 91.9467 316.189 92.28 316.189 92.64V93.26H308.732V92.64ZM311.791 88.5L310.893 91.54H313.894L312.996 88.5C312.945 88.38 312.887 88.2933 312.824 88.24C312.773 88.1867 312.709 88.16 312.633 88.16H312.155C312.078 88.16 312.008 88.1867 311.944 88.24C311.893 88.2933 311.842 88.38 311.791 88.5ZM316.189 96.9H316.38V92.64C316.38 92.2667 316.348 91.9267 316.284 91.62C316.233 91.3 316.157 90.9933 316.055 90.7L314.736 87.44C314.583 87.0533 314.417 86.7333 314.239 86.48C314.073 86.2267 313.78 86.1 313.359 86.1H311.485C311.052 86.1 310.746 86.2267 310.568 86.48C310.389 86.7333 310.23 87.0467 310.09 87.42L308.866 90.7C308.764 90.9933 308.681 91.3 308.617 91.62C308.566 91.9267 308.541 92.2667 308.541 92.64V96.9H308.732V93.46H316.189V96.9ZM310.701 97.98C310.701 98.2333 310.644 98.42 310.529 98.54C310.427 98.6467 310.255 98.7 310.013 98.7H307.202C306.96 98.7 306.782 98.6467 306.667 98.54C306.565 98.42 306.514 98.2333 306.514 97.98V92.7C306.514 92.3 306.571 91.84 306.686 91.32C306.814 90.8 307.005 90.1933 307.26 89.5L308.923 84.96C309 84.7333 309.114 84.5667 309.267 84.46C309.433 84.3533 309.643 84.3 309.898 84.3H315.042C315.284 84.3 315.481 84.3533 315.634 84.46C315.8 84.5667 315.921 84.7333 315.998 84.96L317.661 89.5C317.916 90.1933 318.101 90.8 318.216 91.32C318.343 91.84 318.407 92.3 318.407 92.7V97.98C318.407 98.2333 318.349 98.42 318.235 98.54C318.133 98.6467 317.961 98.7 317.718 98.7H314.831C314.576 98.7 314.385 98.6467 314.258 98.54C314.143 98.42 314.086 98.2333 314.086 97.98V95.18H310.701V97.98Z" fill="#EBFF00"/>
<path d="M327.154 98.7H321.112C320.869 98.7 320.691 98.6467 320.576 98.54C320.474 98.42 320.423 98.2333 320.423 97.98V95.64C320.423 95.3867 320.474 95.2067 320.576 95.1C320.691 94.98 320.869 94.92 321.112 94.92H326.255C326.421 94.92 326.542 94.8667 326.618 94.76C326.707 94.64 326.752 94.5 326.752 94.34C326.752 94.1133 326.707 93.9467 326.618 93.84C326.542 93.7333 326.421 93.6733 326.255 93.66L323.387 93.24C322.495 93.1067 321.774 92.8 321.226 92.32C320.691 91.84 320.423 91.04 320.423 89.92V87.82C320.423 86.6867 320.774 85.82 321.475 85.22C322.176 84.6067 323.145 84.3 324.381 84.3H329.735C329.977 84.3 330.149 84.36 330.251 84.48C330.366 84.5867 330.423 84.7667 330.423 85.02V87.4C330.423 87.6533 330.366 87.84 330.251 87.96C330.149 88.0667 329.977 88.12 329.735 88.12H325.28C325.114 88.12 324.987 88.18 324.897 88.3C324.808 88.4067 324.764 88.5467 324.764 88.72C324.764 88.8933 324.808 89.04 324.897 89.16C324.987 89.28 325.114 89.3467 325.28 89.36L328.129 89.76C329.021 89.8933 329.741 90.2 330.289 90.68C330.837 91.16 331.111 91.96 331.111 93.08V95.18C331.111 96.3133 330.755 97.1867 330.041 97.8C329.34 98.4 328.377 98.7 327.154 98.7ZM328.702 86.1H324.458C323.871 86.1 323.4 86.2733 323.043 86.62C322.686 86.9533 322.507 87.3867 322.507 87.92V89.56C322.507 90.1067 322.609 90.4867 322.813 90.7C323.03 90.9 323.304 91.0333 323.635 91.1L327.67 91.96C328.027 92.04 328.307 92.2 328.511 92.44C328.728 92.6667 328.836 93.0933 328.836 93.72V94.88C328.836 95.4133 328.658 95.8533 328.301 96.2C327.957 96.5333 327.491 96.7 326.905 96.7H322.144V96.9H326.905C327.555 96.9 328.071 96.7133 328.454 96.34C328.836 95.9533 329.027 95.4667 329.027 94.88V93.72C329.027 93.0267 328.9 92.5467 328.645 92.28C328.403 92.0133 328.09 91.84 327.708 91.76L323.674 90.9C323.381 90.8467 323.145 90.7267 322.966 90.54C322.788 90.3533 322.699 90.0267 322.699 89.56V87.92C322.699 87.4533 322.858 87.0667 323.177 86.76C323.495 86.4533 323.922 86.3 324.458 86.3H328.702V86.1Z" fill="#EBFF00"/>
<path d="M335.478 96.9V91.62H340.622C341.323 91.62 341.852 91.7533 342.208 92.02C342.565 92.2867 342.744 92.74 342.744 93.38V96.9H342.935V93.38C342.935 92.6867 342.744 92.1867 342.361 91.88C341.979 91.5733 341.399 91.42 340.622 91.42H339.838L342.036 86.1H341.826L339.627 91.42H335.478V86.1H335.287V96.9H335.478ZM336.855 98.7H333.891C333.649 98.7 333.471 98.6467 333.356 98.54C333.254 98.42 333.203 98.2333 333.203 97.98V85.02C333.203 84.7667 333.254 84.5867 333.356 84.48C333.471 84.36 333.649 84.3 333.891 84.3H336.855C337.097 84.3 337.269 84.36 337.371 84.48C337.486 84.5867 337.543 84.7667 337.543 85.02V89.62H338.308L340.277 84.96C340.367 84.72 340.488 84.5533 340.641 84.46C340.794 84.3533 340.991 84.3 341.233 84.3H344.178C344.395 84.3 344.541 84.36 344.618 84.48C344.694 84.5867 344.688 84.7467 344.598 84.96L342.648 89.62C343.362 89.66 343.929 89.9267 344.35 90.42C344.783 90.9 345 91.54 345 92.34V97.98C345 98.2333 344.943 98.42 344.828 98.54C344.726 98.6467 344.554 98.7 344.312 98.7H341.367C341.125 98.7 340.947 98.6467 340.832 98.54C340.73 98.42 340.679 98.2333 340.679 97.98V94.08C340.679 93.8667 340.628 93.7 340.526 93.58C340.424 93.46 340.271 93.4 340.067 93.4H337.543V97.98C337.543 98.2333 337.486 98.42 337.371 98.54C337.269 98.6467 337.097 98.7 336.855 98.7Z" fill="#EBFF00"/>
<path d="M260 30L245 43L247.774 35.3302L260 30Z" fill="#EFFF3A"/>
<path fill-rule="evenodd" clip-rule="evenodd" d="M259.953 30.18C260.039 30.3357 260.004 30.5345 259.873 30.6473L245.552 42.9202C245.432 43.0231 245.262 43.0269 245.139 42.9293C245.015 42.8318 244.967 42.6573 245.023 42.504L247.672 35.2632C247.706 35.1699 247.774 35.0959 247.861 35.0585L259.533 30.0264C259.689 29.959 259.868 30.0244 259.953 30.18ZM248.251 35.6742L246.119 41.5025L257.646 31.6237L248.251 35.6742Z" fill="#7E8903"/>
<path d="M225.59 30L240.539 42.4607L237.888 35.0611L225.59 30ZM254.957 58.6127L250.944 65.3943L259.531 68L262 58.7631L254.957 58.6127ZM224 58.7631L226.454 68L235.041 65.3943L231.028 58.6127L224 58.7631Z" fill="#D9EC00"/>
<path fill-rule="evenodd" clip-rule="evenodd" d="M225.61 30.181C225.698 30.0243 225.882 29.9587 226.043 30.0267L238.114 35.1229C238.206 35.1618 238.278 35.2399 238.312 35.3378L240.914 42.7887C240.968 42.9444 240.917 43.119 240.788 43.2152C240.659 43.3114 240.485 43.3054 240.363 43.2007L225.69 30.6535C225.556 30.5385 225.521 30.3377 225.61 30.181ZM227.926 31.6152L239.815 41.7824L237.707 35.7448L227.926 31.6152ZM254.436 58.9889C254.501 58.8763 254.618 58.8086 254.744 58.8114L261.656 58.9628C261.764 58.9651 261.865 59.0196 261.93 59.1105C261.995 59.2014 262.016 59.3185 261.988 59.4279L259.564 68.7289C259.54 68.8244 259.479 68.9054 259.397 68.9535C259.314 69.0017 259.217 69.013 259.126 68.9848L250.697 66.361C250.593 66.3285 250.509 66.2472 250.47 66.1409C250.43 66.0345 250.44 65.915 250.497 65.8175L254.436 58.9889ZM231.241 58.8114C231.367 58.8086 231.484 58.8763 231.549 58.9889L235.488 65.8175C235.545 65.915 235.555 66.0345 235.515 66.1409C235.476 66.2472 235.392 66.3285 235.288 66.361L226.859 68.9848C226.768 69.013 226.671 69.0017 226.588 68.9534C226.506 68.9051 226.445 68.824 226.421 68.7283L224.012 59.4273C223.984 59.318 224.005 59.201 224.07 59.1103C224.135 59.0196 224.236 58.9651 224.344 58.9628L231.241 58.8114ZM254.932 59.552L251.333 65.7908L258.982 68.1719L261.192 59.6891L254.932 59.552ZM224.807 59.6891L227.004 68.1717L234.652 65.7908L231.053 59.552L224.807 59.6891Z" fill="#B0BF06"/>
<path d="M234.431 47.8L232 51.7833L240.662 52.2L240.354 42.1167L234.431 47.8ZM251.554 47.8L245.554 42L245.354 52.2L254 51.7833L251.554 47.8ZM234.923 66L240.123 63.25L235.631 59.45L234.923 66ZM245.862 63.25L251.077 66L250.354 59.45L245.862 63.25Z" fill="#DCEE10"/>
<path fill-rule="evenodd" clip-rule="evenodd" d="M245.338 41.028C245.467 40.972 245.615 41.0015 245.716 41.1031L251.524 46.9665C251.546 46.988 251.564 47.0122 251.58 47.0386L253.948 51.0655C254.013 51.1766 254.017 51.3156 253.959 51.4311C253.901 51.5465 253.79 51.6212 253.665 51.6275L245.295 52.0487C245.198 52.0536 245.103 52.016 245.033 51.9448C244.964 51.8736 244.925 51.7752 244.927 51.6731L245.121 41.3616C245.123 41.215 245.209 41.0841 245.338 41.028ZM245.808 42.2196L245.638 51.293L253.036 50.9207L251.004 47.4656L245.808 42.2196ZM240.572 41.1455C240.7 41.2007 240.786 41.3299 240.79 41.4755L241.088 51.669C241.091 51.7718 241.053 51.8713 240.983 51.9433C240.913 52.0154 240.817 52.0536 240.719 52.0487L232.335 51.6275C232.211 51.6212 232.099 51.5468 232.041 51.4315C231.983 51.3163 231.987 51.1775 232.052 51.0664L234.405 47.0395C234.421 47.0124 234.44 46.9875 234.462 46.9656L240.196 41.2201C240.296 41.1195 240.443 41.0903 240.572 41.1455ZM234.981 47.4658L232.962 50.9205L240.373 51.2929L240.111 42.3248L234.981 47.4658ZM235.735 58.6673C235.856 58.6166 235.993 58.6397 236.093 58.7275L240.442 62.569C240.531 62.6481 240.577 62.7687 240.565 62.8908C240.552 63.0128 240.482 63.1203 240.379 63.1775L235.345 65.9575C235.23 66.021 235.091 66.0128 234.984 65.9362C234.876 65.8595 234.818 65.7269 234.832 65.5914L235.517 58.9698C235.531 58.8343 235.615 58.718 235.735 58.6673ZM250.249 58.6671C250.37 58.7176 250.454 58.8337 250.468 58.9689L251.168 65.5906C251.183 65.7261 251.124 65.8589 251.017 65.9358C250.91 66.0127 250.77 66.0211 250.655 65.9577L245.607 63.1777C245.503 63.1206 245.433 63.0131 245.42 62.891C245.408 62.7689 245.454 62.6482 245.544 62.569L249.892 58.7275C249.992 58.6398 250.129 58.6166 250.249 58.6671ZM236.145 59.7377L235.602 64.9819L239.589 62.7802L236.145 59.7377ZM246.397 62.7797L250.396 64.982L249.842 59.7364L246.397 62.7797Z" fill="#D9EC00"/>
<path d="M251 65.6274L245.834 63L246.246 66.5191L246.2 68L251 65.6274ZM235 65.6274L239.8 68L239.77 66.5191L240.15 63L235 65.6274Z" fill="#CEDA9E"/>
<path fill-rule="evenodd" clip-rule="evenodd" d="M245.518 63.0641C245.623 62.9874 245.759 62.9789 245.872 63.0421L250.816 65.8092C250.93 65.8729 251.001 65.9991 251 66.1363C250.999 66.2735 250.927 66.3988 250.812 66.4611L246.219 68.9599C246.11 69.0188 245.981 69.0124 245.878 68.9431C245.775 68.8737 245.714 68.7516 245.718 68.6219L245.761 67.0885L245.37 63.4084C245.356 63.2733 245.413 63.1409 245.518 63.0641ZM240.466 63.0631C240.571 63.1391 240.629 63.2707 240.616 63.4054L240.253 67.0888L240.282 68.6256C240.284 68.7546 240.223 68.8755 240.12 68.944C240.018 69.0125 239.889 69.0186 239.781 68.9599L235.188 66.4611C235.073 66.3988 235.001 66.2736 235 66.1365C234.999 65.9994 235.07 65.8732 235.184 65.8094L240.113 63.0423C240.225 62.9792 240.361 62.9872 240.466 63.0631ZM246.128 64.0141L246.448 67.032C246.45 67.0493 246.451 67.0668 246.45 67.0843L246.424 68.0241L249.907 66.1295L246.128 64.0141ZM236.092 66.129L239.582 68.0273L239.564 67.0806C239.564 67.0654 239.565 67.0502 239.566 67.035L239.863 64.0119L236.092 66.129Z" fill="#B3D7BD"/>
<path d="M240.053 57L236 55.569L238.86 54L240.053 57ZM245.932 57L247.125 54L250 55.569L245.932 57Z" fill="#233447"/>
<path fill-rule="evenodd" clip-rule="evenodd" d="M238.388 54.0181C238.477 54.0461 238.549 54.1044 238.587 54.1796L239.806 56.5765C239.861 56.685 239.838 56.8115 239.747 56.8997C239.656 56.988 239.514 57.0217 239.384 56.9859L235.242 55.8425C235.107 55.8053 235.012 55.7005 235.001 55.5778C234.99 55.4551 235.066 55.3391 235.193 55.2847L238.116 54.0311C238.201 53.9948 238.299 53.9901 238.388 54.0181ZM246.597 54.0182C246.686 53.9901 246.784 53.9947 246.868 54.0308L249.806 55.2844C249.933 55.3387 250.01 55.4548 249.999 55.5777C249.988 55.7005 249.893 55.8054 249.758 55.8426L245.601 56.9859C245.471 57.0217 245.329 56.9879 245.238 56.8996C245.147 56.8113 245.124 56.6849 245.179 56.5765L246.398 54.1796C246.437 54.1045 246.508 54.0463 246.597 54.0182ZM246.887 54.7105L246.124 56.2095L248.724 55.4944L246.887 54.7105ZM236.273 55.4943L238.861 56.2087L238.099 54.711L236.273 55.4943Z" fill="#233447"/>
<path d="M235.025 66L235.754 59.3365L231 59.4842L235.025 66ZM250.246 59.3365L250.975 66L255 59.4842L250.246 59.3365ZM253.861 52L245.324 52.4103L246.114 57.1536L247.375 54.2978L250.413 55.7913L253.861 52ZM235.603 55.7913L238.641 54.2978L239.886 57.1536L240.691 52.4103L232.139 52L235.603 55.7913Z" fill="#D7FF38"/>
<path fill-rule="evenodd" clip-rule="evenodd" d="M232.139 51.2106C232.199 51.0763 232.33 50.9933 232.471 51.0004L240.775 51.4186C240.874 51.4236 240.967 51.4732 241.03 51.5549C241.092 51.6365 241.118 51.7424 241.101 51.8457L240.32 56.6796C240.294 56.8392 240.172 56.962 240.019 56.9817C239.866 57.0013 239.719 56.9132 239.657 56.7648L238.594 54.2051L235.971 55.5586C235.832 55.6303 235.665 55.5971 235.56 55.4771L232.198 51.6133C232.102 51.5039 232.079 51.3448 232.139 51.2106ZM253.861 51.2102C253.921 51.3443 253.898 51.5032 253.803 51.6127L250.455 55.4765C250.351 55.5969 250.183 55.6304 250.044 55.5586L247.42 54.2044L246.342 56.7663C246.28 56.9143 246.133 57.0018 245.98 56.9815C245.827 56.9612 245.705 56.8381 245.68 56.6785L244.913 51.8445C244.897 51.7414 244.923 51.6358 244.986 51.5544C245.048 51.473 245.141 51.4236 245.24 51.4186L253.529 51.0004C253.67 50.9933 253.801 51.0761 253.861 51.2102ZM233.282 51.7743L235.898 54.7804L238.614 53.3792C238.699 53.3351 238.798 53.3297 238.887 53.3641C238.976 53.3985 239.048 53.4697 239.086 53.5613L239.829 55.348L240.349 52.1302L233.282 51.7743ZM245.665 52.1303L246.176 55.3515L246.929 53.5598C246.968 53.4686 247.04 53.3979 247.129 53.3638C247.218 53.3297 247.316 53.3353 247.401 53.3792L250.116 54.7801L252.721 51.7743L245.665 52.1303ZM236.22 58.5943C236.289 58.6722 236.322 58.7774 236.311 58.8828L235.603 65.6737C235.587 65.8291 235.479 65.9565 235.334 65.991C235.189 66.0254 235.039 65.9594 234.961 65.8265L231.052 59.1861C230.987 59.0749 230.983 58.9354 231.041 58.8202C231.1 58.705 231.213 58.6315 231.337 58.6275L235.954 58.4769C236.055 58.4736 236.152 58.5165 236.22 58.5943ZM249.78 58.5943C249.848 58.5165 249.945 58.4736 250.046 58.4769L254.663 58.6275C254.787 58.6315 254.9 58.705 254.959 58.8202C255.017 58.9354 255.013 59.0749 254.948 59.1861L251.039 65.8265C250.961 65.9594 250.811 66.0254 250.666 65.991C250.521 65.9565 250.413 65.8291 250.397 65.6737L249.689 58.8828C249.678 58.7774 249.711 58.6722 249.78 58.5943ZM231.962 59.3397L235.021 64.5371L235.575 59.2219L231.962 59.3397ZM250.425 59.2219L250.979 64.5371L254.038 59.3397L250.425 59.2219Z" fill="#B0BF06"/>
<path d="M232 52L235.631 59.0229L235.508 55.5267L232 52ZM250.508 55.5267L250.354 59.0229L254 52L250.508 55.5267ZM240.662 52.3817L239.846 56.7939L240.862 62L241.092 55.145L240.662 52.3817ZM245.354 52.3817L244.938 55.1298L245.123 62L246.154 56.7939L245.354 52.3817Z" fill="#D0E200"/>
<path fill-rule="evenodd" clip-rule="evenodd" d="M253.845 51.064C253.989 51.1681 254.041 51.3697 253.966 51.5379L250.436 59.4374C250.364 59.5984 250.196 59.6832 250.034 59.6402C249.872 59.5973 249.761 59.4385 249.767 59.2602L249.916 55.3276C249.92 55.2393 249.952 55.155 250.008 55.0897L253.388 51.1228C253.506 50.985 253.7 50.96 253.845 51.064ZM232.155 51.0641C232.3 50.9601 232.494 50.9848 232.611 51.1222L236.007 55.0891C236.063 55.1553 236.096 55.241 236.099 55.3307L236.218 59.2632C236.223 59.4411 236.111 59.5987 235.949 59.6407C235.788 59.6827 235.62 59.5976 235.549 59.4368L232.034 51.5374C231.959 51.3693 232.011 51.168 232.155 51.0641ZM233.678 53.4828L235.46 57.4878L235.4 55.494L233.678 53.4828ZM250.614 55.4948L250.539 57.4619L252.305 53.5105L250.614 55.4948ZM245.274 51.4294C245.447 51.4268 245.597 51.5602 245.625 51.7434L246.4 56.7063C246.407 56.7491 246.406 56.7928 246.399 56.8355L245.401 62.6915C245.369 62.8811 245.208 63.0138 245.028 62.9989C244.848 62.9839 244.708 62.826 244.704 62.6334L244.525 54.9056C244.524 54.8852 244.526 54.8648 244.528 54.8446L244.93 51.7535C244.954 51.5696 245.1 51.4319 245.274 51.4294ZM240.741 51.4294C240.914 51.4318 241.06 51.5686 241.084 51.7519L241.501 54.8601C241.504 54.8817 241.505 54.9034 241.505 54.9251L241.281 62.6357C241.276 62.8281 241.135 62.9849 240.956 62.999C240.776 63.0131 240.616 62.8799 240.584 62.6905L239.601 56.8346C239.594 56.7918 239.594 56.748 239.6 56.7052L240.39 51.7422C240.419 51.5597 240.568 51.427 240.741 51.4294ZM240.304 56.7664L240.682 59.0216L240.801 54.9345L240.707 54.2333L240.304 56.7664ZM245.31 54.2919L245.229 54.9177L245.322 58.9596L245.696 56.7653L245.31 54.2919Z" fill="#D3FF25"/>
<path d="M245.936 56.453L244.974 62.4223L245.664 63L249.856 59.0088L250 55L245.936 56.453ZM236 55L236.115 59.0088L240.308 63L240.997 62.4223L240.049 56.453L236 55Z" fill="#F2FF5E"/>
<path fill-rule="evenodd" clip-rule="evenodd" d="M250.855 55.0718C250.951 55.141 251.005 55.25 251 55.3638L250.843 59.0221C250.839 59.1203 250.791 59.2122 250.712 59.2754L246.142 62.9178C246.011 63.0222 245.821 63.0277 245.683 62.9312L244.932 62.404C244.819 62.3247 244.763 62.1915 244.789 62.0605L245.837 56.613C245.862 56.4855 245.959 56.3813 246.089 56.3422L250.519 55.0163C250.634 54.9819 250.759 55.0026 250.855 55.0718ZM235.147 55.0709C235.242 55.0024 235.367 54.982 235.481 55.0164L239.895 56.3423C240.026 56.3816 240.123 56.4861 240.147 56.6139L241.18 62.0614C241.205 62.1921 241.149 62.3249 241.037 62.404L240.285 62.9312C240.148 63.0277 239.958 63.0222 239.827 62.9178L235.257 59.2754C235.177 59.2115 235.129 59.1184 235.125 59.0193L235 55.361C234.996 55.2475 235.051 55.1394 235.147 55.0709ZM246.525 56.9455L245.557 61.9718L245.889 62.2048L250.111 58.8398L250.24 55.8334L246.525 56.9455ZM235.756 55.8326L239.459 56.9451L240.412 61.9714L240.08 62.2048L235.859 58.8409L235.756 55.8326Z" fill="#C6D525"/>
<path d="M246.2 68.4327L246.246 66.9143L245.865 66.5551H240.12L239.77 66.9143L239.8 68.4327L235 66L236.676 67.4694L240.074 70H245.91L249.324 67.4694L251 66L246.2 68.4327Z" fill="#DAE2BA"/>
<path fill-rule="evenodd" clip-rule="evenodd" d="M235.06 65.1658C235.157 65.008 235.346 64.9547 235.501 65.0414L239.582 67.3336L239.564 66.3562C239.562 66.2551 239.597 66.1574 239.661 66.0849L239.997 65.704C240.062 65.6303 240.151 65.5887 240.244 65.5887H245.741C245.83 65.5887 245.915 65.626 245.979 65.6928L246.343 66.0738C246.414 66.148 246.453 66.2521 246.45 66.36L246.424 67.3303L250.499 65.0414C250.654 64.9547 250.843 65.008 250.94 65.1658C251.038 65.3237 251.014 65.5368 250.884 65.6632L249.279 67.2215C249.272 67.2283 249.265 67.2348 249.258 67.241L245.991 69.9247C245.932 69.9736 245.859 70 245.785 70H240.2C240.126 70 240.053 69.9734 239.994 69.9242L236.742 67.2405C236.735 67.2345 236.727 67.2281 236.721 67.2215L235.116 65.6632C234.986 65.5368 234.962 65.3237 235.06 65.1658ZM237.865 67.2204L240.315 69.242H245.671L248.125 67.226L246.219 68.2964C246.11 68.3573 245.981 68.3507 245.878 68.279C245.775 68.2074 245.714 68.0814 245.718 67.9475L245.757 66.5068L245.604 66.3467H240.39L240.256 66.499L240.282 67.9513C240.284 68.0845 240.223 68.2093 240.12 68.2801C240.018 68.3508 239.889 68.357 239.781 68.2964L237.865 67.2204Z" fill="#B7C09E"/>
<path d="M245.619 62.6496L244.941 62H241.031L240.353 62.6496L240 67L240.325 66.5669H245.647L246 67L245.619 62.6496Z" fill="#161616"/>
<path fill-rule="evenodd" clip-rule="evenodd" d="M240.224 62.0723C240.284 62.0254 240.357 62 240.432 62H244.538C244.613 62 244.686 62.0254 244.747 62.0723L245.458 62.6264C245.536 62.6871 245.587 62.779 245.598 62.8803L245.998 66.5911C246.014 66.7446 245.938 66.8926 245.806 66.9614C245.674 67.0303 245.516 67.0054 245.409 66.899L245.14 66.6306H239.839L239.601 66.8882C239.497 67.0008 239.337 67.0318 239.202 66.9654C239.067 66.8991 238.986 66.75 239.002 66.5941L239.373 62.8833C239.383 62.7809 239.433 62.6877 239.512 62.6264L240.224 62.0723ZM239.776 65.8955H245.218L244.919 63.1217L244.423 62.7351H240.548L240.053 63.1206L239.776 65.8955Z" fill="#161616"/>
<path d="M260.733 43.339L262 36.4237L260.107 30L245.772 42.1017L251.285 47.4068L259.079 50L260.808 47.7119L260.063 47.1017L261.255 45.8644L260.331 45.0508L261.523 44.0169L260.733 43.339ZM224 36.4237L225.267 43.339L224.462 44.0169L225.654 45.0508L224.745 45.8644L225.937 47.1017L225.192 47.7119L226.906 50L234.7 47.4068L240.213 42.1017L225.878 30L224 36.4237Z" fill="#7E8903"/>
<path fill-rule="evenodd" clip-rule="evenodd" d="M225.142 30.0158C225.255 29.981 225.377 30.0045 225.468 30.0785L239.914 41.7472C239.995 41.8126 240.043 41.9104 240.046 42.015C240.05 42.1195 240.008 42.2203 239.931 42.2907L234.375 47.406C234.337 47.4411 234.292 47.4673 234.243 47.4829L226.389 49.9834C226.249 50.0281 226.096 49.9806 226.004 49.864L224.278 47.6577C224.219 47.5828 224.192 47.4875 224.204 47.3928C224.215 47.2981 224.264 47.212 224.338 47.1534L224.769 46.8158L223.857 45.9096C223.786 45.8391 223.747 45.7418 223.751 45.6414C223.755 45.5411 223.8 45.4469 223.876 45.3819L224.468 44.8745L223.595 44.1495C223.512 44.081 223.465 43.9786 223.466 43.8707C223.466 43.7629 223.515 43.6611 223.599 43.5938L224.242 43.075L223.006 36.6195C222.995 36.5619 222.999 36.5024 223.016 36.4463L224.908 30.2524C224.942 30.1392 225.03 30.0506 225.142 30.0158ZM259.842 30.0157C259.954 30.0503 260.042 30.1386 260.077 30.2516L261.984 36.4455C262.001 36.5018 262.005 36.5616 261.994 36.6195L260.757 43.0772L261.389 43.5958C261.471 43.6636 261.519 43.7651 261.519 43.8723C261.52 43.9796 261.472 44.0814 261.39 44.1495L260.519 44.8722L261.122 45.38C261.199 45.4447 261.245 45.5391 261.249 45.64C261.253 45.7408 261.215 45.8387 261.143 45.9096L260.231 46.8158L260.662 47.1534C260.737 47.2121 260.785 47.2986 260.796 47.3935C260.807 47.4885 260.781 47.5841 260.721 47.6589L258.98 49.8651C258.888 49.9809 258.736 50.0279 258.596 49.9834L250.742 47.4829C250.693 47.4673 250.648 47.4411 250.61 47.406L245.054 42.2907C244.977 42.2203 244.935 42.1195 244.939 42.015C244.942 41.9104 244.99 41.8126 245.071 41.7472L259.517 30.0785C259.608 30.0045 259.73 29.981 259.842 30.0157ZM245.838 42.0443L251.03 46.8244L258.577 49.2272L259.943 47.4964L259.476 47.1302C259.395 47.0669 259.345 46.9715 259.339 46.8686C259.333 46.7656 259.372 46.665 259.445 46.5927L260.367 45.6764L259.736 45.1447C259.655 45.0765 259.609 44.9753 259.609 44.8688C259.61 44.7623 259.657 44.6615 259.738 44.5939L260.605 43.8747L260.145 43.4969C260.044 43.4137 259.996 43.2811 260.021 43.1517L261.28 36.572L259.554 30.9649L245.838 42.0443ZM225.432 30.9657L223.719 36.5716L224.979 43.1517C225.004 43.2822 224.955 43.416 224.852 43.499L224.383 43.8773L225.247 44.5939C225.328 44.6612 225.375 44.7614 225.376 44.8674C225.377 44.9734 225.331 45.0743 225.251 45.1429L224.63 45.6741L225.555 46.5927C225.628 46.665 225.667 46.7656 225.661 46.8686C225.655 46.9715 225.605 47.0669 225.524 47.1302L225.056 47.4973L226.409 49.2268L233.955 46.8244L239.147 42.0443L225.432 30.9657Z" fill="#CCFF00"/>
<path d="M259.334 49.6347L251.413 47.0816L253.821 51.0698L250.232 58.746L254.957 58.6792H262L259.334 49.6347ZM234.556 47.0816L226.635 49.6347L224 58.6792H231.028L235.738 58.746L232.163 51.0698L234.556 47.0816ZM245.31 51.487L245.809 41.8585L248.112 35H237.888L240.16 41.8585L240.69 51.487L240.872 54.5241L240.887 62H245.083L245.113 54.5241L245.31 51.487Z" fill="#EBFF00"/>
<path fill-rule="evenodd" clip-rule="evenodd" d="M237.698 35.1538C237.764 35.0573 237.87 35 237.983 35H248.017C248.131 35 248.237 35.0575 248.303 35.1544C248.369 35.2514 248.386 35.3758 248.349 35.4884L246.105 42.3649L245.617 52.0404L245.425 55.0956L245.395 62.6327C245.394 62.8358 245.237 63 245.044 63H240.926C240.733 63 240.576 62.8353 240.575 62.6319L240.56 55.0943L240.383 52.0385L240.383 52.0368L239.865 42.3647L237.65 35.487C237.614 35.3744 237.632 35.2504 237.698 35.1538ZM238.472 35.7376L240.545 42.1757C240.555 42.2072 240.561 42.24 240.563 42.2732L241.083 51.9935L241.083 51.9953L241.262 55.0601C241.262 55.0674 241.262 55.0746 241.262 55.0819L241.277 62.2624H244.694L244.723 55.0811C244.723 55.0735 244.723 55.0659 244.724 55.0583L244.917 51.9942L245.407 42.2744C245.409 42.2403 245.415 42.2066 245.426 42.1743L247.526 35.7376H238.472ZM234.989 47.3407C235.079 47.462 235.088 47.6293 235.012 47.7605L232.762 51.617L236.189 59.1871C236.241 59.3022 236.233 59.4374 236.167 59.5447C236.102 59.652 235.988 59.7161 235.867 59.7143L231.249 59.647H224.351C224.24 59.647 224.136 59.592 224.07 59.4986C224.003 59.4053 223.983 59.2845 224.015 59.1729L226.601 50.0406C226.634 49.9232 226.721 49.8309 226.832 49.794L234.607 47.2161C234.746 47.1698 234.899 47.2194 234.989 47.3407ZM250.981 47.3411C251.071 47.2196 251.224 47.1697 251.364 47.2161L259.138 49.794C259.249 49.8308 259.335 49.9226 259.369 50.0394L261.985 59.1718C262.017 59.2835 261.997 59.4045 261.931 59.4982C261.864 59.5918 261.76 59.647 261.649 59.647H254.736L250.103 59.7143C249.982 59.7161 249.868 59.6518 249.803 59.5444C249.737 59.437 249.729 59.3017 249.782 59.1866L253.222 51.6173L250.959 47.7614C250.882 47.6303 250.891 47.4627 250.981 47.3411ZM227.221 50.4386L224.822 58.9093H231.254L235.313 58.9685L232.047 51.7532C231.996 51.6406 232.002 51.5085 232.064 51.4021L233.922 48.2165L227.221 50.4386ZM252.052 48.2178L253.92 51.4012C253.983 51.5079 253.99 51.6407 253.938 51.7538L250.659 58.9686L254.736 58.9093L261.177 58.9093L258.75 50.4388L252.052 48.2178Z" fill="#B0BF06"/>
<path d="M233.474 8.52018C239.387 5.59763 246.315 5.55149 252.267 8.39498L444.708 100.33C452.876 104.233 450.096 116.5 441.044 116.5H247H51.3662C42.3754 116.5 39.54 104.363 47.6003 100.38L233.474 8.52018Z" stroke="#EBFF00" stroke-width="7"/>
</svg>
