<svg width="39" height="40" viewBox="0 0 39 40" fill="none" xmlns="http://www.w3.org/2000/svg">
<path d="M37 0L22 13L24.7739 5.33018L37 0Z" fill="#EFFF3A"/>
<path fill-rule="evenodd" clip-rule="evenodd" d="M36.9535 0.180027C37.0386 0.335671 37.0042 0.534529 36.8726 0.64727L22.5523 12.9202C22.4322 13.0231 22.2625 13.0269 22.1385 12.9293C22.0145 12.8318 21.9673 12.6573 22.0234 12.504L24.6716 5.26318C24.7057 5.16995 24.7742 5.09588 24.861 5.05846L36.5331 0.0264009C36.6895 -0.0410002 36.8684 0.024383 36.9535 0.180027ZM25.2511 5.67416L23.1195 11.5025L34.6463 1.6237L25.2511 5.67416Z" fill="#7E8903"/>
<path d="M2.59027 0L17.5389 12.4607L14.8884 5.0611L2.59027 0ZM31.9574 28.6127L27.9438 35.3943L36.5313 38L39 28.7631L31.9574 28.6127ZM1 28.7631L3.45357 38L12.0411 35.3943L8.0275 28.6127L1 28.7631Z" fill="#D9EC00"/>
<path fill-rule="evenodd" clip-rule="evenodd" d="M2.60965 0.181031C2.69786 0.0243189 2.882 -0.0412761 3.04296 0.0266776L15.1139 5.12289C15.2061 5.16182 15.2782 5.23992 15.3124 5.33781L17.9139 12.7887C17.9683 12.9444 17.9167 13.119 17.788 13.2152C17.6592 13.3114 17.485 13.3054 17.3625 13.2007L2.6901 0.653541C2.55563 0.538544 2.52144 0.337743 2.60965 0.181031ZM4.92562 1.61523L16.815 11.7824L14.7069 5.74479L4.92562 1.61523ZM31.4362 28.9889C31.5011 28.8763 31.6184 28.8086 31.7438 28.8114L38.6563 28.9628C38.7644 28.9651 38.8655 29.0196 38.9302 29.1105C38.9949 29.2014 39.0161 29.3185 38.9876 29.4279L36.5645 38.7289C36.5396 38.8244 36.4791 38.9054 36.3966 38.9535C36.3141 39.0017 36.2165 39.013 36.126 38.9848L27.6972 36.361C27.5929 36.3285 27.5089 36.2472 27.4697 36.1409C27.4305 36.0345 27.4405 35.915 27.4968 35.8175L31.4362 28.9889ZM8.24133 28.8114C8.36675 28.8086 8.48403 28.8763 8.54897 28.9889L12.4884 35.8175C12.5447 35.915 12.5547 36.0345 12.5154 36.1409C12.4762 36.2472 12.3922 36.3285 12.2879 36.361L3.8591 38.9848C3.7685 39.013 3.67088 39.0017 3.58833 38.9534C3.50578 38.9051 3.44528 38.824 3.42051 38.7283L1.01227 29.4273C0.983956 29.318 1.00523 29.201 1.06996 29.1103C1.13468 29.0196 1.23564 28.9651 1.34366 28.9628L8.24133 28.8114ZM31.9318 29.552L28.3327 35.7908L35.9819 38.1719L38.1918 29.6891L31.9318 29.552ZM1.80746 29.6891L4.0038 38.1717L11.6525 35.7908L8.05333 29.552L1.80746 29.6891Z" fill="#B0BF06"/>
<path d="M11.4308 17.8L9 21.7833L17.6615 22.2L17.3538 12.1167L11.4308 17.8ZM28.5538 17.8L22.5538 12L22.3538 22.2L31 21.7833L28.5538 17.8ZM11.9231 36L17.1231 33.25L12.6308 29.45L11.9231 36ZM22.8615 33.25L28.0769 36L27.3538 29.45L22.8615 33.25Z" fill="#DCEE10"/>
<path fill-rule="evenodd" clip-rule="evenodd" d="M22.3377 11.028C22.4669 10.972 22.6154 11.0015 22.7161 11.1031L28.5243 16.9665C28.5456 16.988 28.5642 17.0122 28.5797 17.0386L30.9477 21.0655C31.013 21.1766 31.0175 21.3156 30.9594 21.4311C30.9014 21.5465 30.7895 21.6212 30.6652 21.6275L22.2955 22.0487C22.1982 22.0536 22.1033 22.016 22.0335 21.9448C21.9637 21.8736 21.9251 21.7752 21.927 21.6731L22.1206 11.3616C22.1234 11.215 22.2086 11.0841 22.3377 11.028ZM22.8079 12.2196L22.6376 21.293L30.0362 20.9207L28.0045 17.4656L22.8079 12.2196ZM17.5717 11.1455C17.7002 11.2007 17.7857 11.3299 17.7899 11.4755L18.0878 21.669C18.0908 21.7718 18.0527 21.8713 17.9828 21.9433C17.9129 22.0154 17.8174 22.0536 17.7195 22.0487L9.33481 21.6275C9.21069 21.6212 9.09891 21.5468 9.04081 21.4315C8.9827 21.3163 8.98689 21.1775 9.05183 21.0664L11.4049 17.0395C11.4207 17.0124 11.4399 16.9875 11.4618 16.9656L17.1955 11.2201C17.2959 11.1195 17.4433 11.0903 17.5717 11.1455ZM11.9806 17.4658L9.9619 20.9205L17.3732 21.2929L17.1111 12.3248L11.9806 17.4658ZM12.7355 28.6673C12.8561 28.6166 12.9935 28.6397 13.0929 28.7275L17.4416 32.5691C17.5311 32.6481 17.5772 32.7687 17.5646 32.8908C17.5521 33.0128 17.4824 33.1203 17.3789 33.1775L12.3451 35.9575C12.2301 36.021 12.0911 36.0128 11.9836 35.9362C11.8761 35.8595 11.8177 35.7269 11.8317 35.5914L12.5168 28.9698C12.5308 28.8343 12.6149 28.718 12.7355 28.6673ZM27.2493 28.6671C27.3698 28.7176 27.454 28.8337 27.4683 28.9689L28.1682 35.5906C28.1826 35.7261 28.1244 35.8589 28.0169 35.9358C27.9095 36.0127 27.7704 36.0211 27.6553 35.9577L22.6066 33.1777C22.5029 33.1206 22.4331 33.0131 22.4205 32.891C22.4078 32.7689 22.454 32.6482 22.5435 32.5691L26.8922 28.7275C26.9915 28.6398 27.1287 28.6166 27.2493 28.6671ZM13.1447 29.7377L12.6021 34.9819L16.5889 32.7802L13.1447 29.7377ZM23.3968 32.7797L27.3963 34.982L26.8418 29.7364L23.3968 32.7797Z" fill="#D9EC00"/>
<path d="M28 35.6274L22.8343 33L23.2457 36.5191L23.2 38L28 35.6274ZM12 35.6274L16.8 38L16.7695 36.5191L17.1505 33L12 35.6274Z" fill="#CEDA9E"/>
<path fill-rule="evenodd" clip-rule="evenodd" d="M22.5179 33.0641C22.6231 32.9874 22.7595 32.9789 22.8724 33.0421L27.8157 35.8092C27.9297 35.8729 28.0007 35.9991 28 36.1363C27.9992 36.2735 27.9268 36.3988 27.8122 36.4611L23.2188 38.9599C23.1104 39.0188 22.9809 39.0124 22.8781 38.9431C22.7753 38.8737 22.7145 38.7516 22.7181 38.6219L22.7611 37.0885L22.3702 33.4084C22.3558 33.2733 22.4127 33.1409 22.5179 33.0641ZM17.4662 33.0631C17.5714 33.1391 17.6288 33.2707 17.6155 33.4054L17.2532 37.0888L17.282 38.6256C17.2844 38.7546 17.223 38.8755 17.1205 38.944C17.0179 39.0125 16.8891 39.0186 16.7812 38.9599L12.1878 36.4611C12.0733 36.3988 12.0008 36.2736 12 36.1365C11.9992 35.9994 12.0701 35.8732 12.1839 35.8094L17.1127 33.0423C17.2251 32.9792 17.361 32.9872 17.4662 33.0631ZM23.1275 34.0141L23.4481 37.032C23.45 37.0493 23.4507 37.0668 23.4502 37.0843L23.4238 38.0241L26.9067 36.1295L23.1275 34.0141ZM13.0924 36.129L16.582 38.0273L16.5643 37.0806C16.564 37.0654 16.5646 37.0502 16.5661 37.035L16.8635 34.0119L13.0924 36.129Z" fill="#B3D7BD"/>
<path d="M17.0534 27L13 25.569L15.8604 24L17.0534 27ZM22.9322 27L24.1253 24L27 25.569L22.9322 27Z" fill="#233447"/>
<path fill-rule="evenodd" clip-rule="evenodd" d="M15.3881 24.0181C15.4769 24.0461 15.5487 24.1044 15.587 24.1796L16.8061 26.5765C16.8612 26.685 16.8382 26.8115 16.7471 26.8997C16.6561 26.988 16.514 27.0217 16.384 26.9859L12.2419 25.8425C12.107 25.8053 12.0117 25.7005 12.001 25.5778C11.9903 25.4551 12.0665 25.3391 12.1934 25.2847L15.1164 24.0311C15.2011 23.9948 15.2992 23.9901 15.3881 24.0181ZM23.5969 24.0182C23.6856 23.9901 23.7836 23.9947 23.8683 24.0308L26.806 25.2844C26.9332 25.3387 27.0096 25.4548 26.999 25.5777C26.9884 25.7005 26.8929 25.8054 26.7578 25.8426L22.601 26.9859C22.471 27.0217 22.329 26.9879 22.2381 26.8996C22.1471 26.8113 22.1241 26.6849 22.1792 26.5765L23.3984 24.1796C23.4365 24.1045 23.5082 24.0463 23.5969 24.0182ZM23.8867 24.7105L23.1243 26.2095L25.7239 25.4944L23.8867 24.7105ZM13.2726 25.4943L15.8606 26.2087L15.0989 24.711L13.2726 25.4943Z" fill="#233447"/>
<path d="M12.0253 36L12.7544 29.3365L8 29.4842L12.0253 36ZM27.2456 29.3365L27.9747 36L32 29.4842L27.2456 29.3365ZM30.8608 22L22.3241 22.4103L23.1139 27.1536L24.3747 24.2978L27.4127 25.7913L30.8608 22ZM12.6025 25.7913L15.6405 24.2978L16.8861 27.1536L17.6911 22.4103L9.13924 22L12.6025 25.7913Z" fill="#D7FF38"/>
<path fill-rule="evenodd" clip-rule="evenodd" d="M9.13917 21.2106C9.19911 21.0763 9.33017 20.9933 9.47108 21.0004L17.7748 21.4186C17.8743 21.4236 17.9671 21.4732 18.0295 21.5549C18.092 21.6365 18.1182 21.7424 18.1015 21.8457L17.3198 26.6796C17.294 26.8392 17.1716 26.962 17.0187 26.9817C16.8659 27.0013 16.719 26.9132 16.6573 26.7648L15.5936 24.2051L12.9706 25.5586C12.8318 25.6303 12.6647 25.5971 12.5603 25.4771L9.1975 21.6133C9.10227 21.5039 9.07924 21.3448 9.13917 21.2106ZM30.8607 21.2102C30.9207 21.3443 30.8979 21.5032 30.803 21.6127L27.455 25.4765C27.3506 25.5969 27.1832 25.6304 27.0441 25.5586L24.4196 24.2044L23.342 26.7663C23.2798 26.9143 23.1326 27.0018 22.98 26.9815C22.8273 26.9612 22.7054 26.8381 22.6801 26.6785L21.9131 21.8445C21.8967 21.7414 21.9231 21.6358 21.9856 21.5544C22.048 21.473 22.1406 21.4236 22.2399 21.4186L30.5289 21.0004C30.6697 20.9933 30.8006 21.0761 30.8607 21.2102ZM10.2817 21.7743L12.898 24.7804L15.6136 23.3792C15.6989 23.3351 15.7976 23.3297 15.8869 23.3641C15.9761 23.3985 16.0481 23.4697 16.0861 23.5613L16.8286 25.348L17.349 22.1302L10.2817 21.7743ZM22.6646 22.1303L23.1756 25.3515L23.9292 23.5598C23.9676 23.4686 24.0396 23.3979 24.1286 23.3638C24.2177 23.3297 24.3161 23.3353 24.4012 23.3792L27.1162 24.7801L29.7208 21.7743L22.6646 22.1303ZM13.2204 28.5943C13.2888 28.6722 13.3219 28.7774 13.3109 28.8828L12.6029 35.6737C12.5867 35.8291 12.4785 35.9565 12.3336 35.991C12.1886 36.0254 12.0388 35.9594 11.9606 35.8265L8.05211 29.1861C7.98666 29.0749 7.98259 28.9354 8.04144 28.8202C8.10029 28.705 8.21312 28.6315 8.33745 28.6275L12.9539 28.4769C13.0547 28.4736 13.1519 28.5165 13.2204 28.5943ZM26.7796 28.5943C26.8481 28.5165 26.9453 28.4736 27.0461 28.4769L31.6626 28.6275C31.7869 28.6315 31.8997 28.705 31.9586 28.8202C32.0174 28.9354 32.0133 29.0749 31.9479 29.1861L28.0394 35.8265C27.9612 35.9594 27.8114 36.0254 27.6664 35.991C27.5215 35.9565 27.4133 35.8291 27.3971 35.6737L26.6891 28.8828C26.6781 28.7774 26.7112 28.6722 26.7796 28.5943ZM8.9616 29.3397L12.0207 34.5371L12.5749 29.2219L8.9616 29.3397ZM27.4251 29.2219L27.9793 34.5371L31.0384 29.3397L27.4251 29.2219Z" fill="#B0BF06"/>
<path d="M9 22L12.6308 29.0229L12.5077 25.5267L9 22ZM27.5077 25.5267L27.3538 29.0229L31 22L27.5077 25.5267ZM17.6615 22.3817L16.8462 26.7939L17.8615 32L18.0923 25.145L17.6615 22.3817ZM22.3538 22.3817L21.9385 25.1298L22.1231 32L23.1538 26.7939L22.3538 22.3817Z" fill="#D0E200"/>
<path fill-rule="evenodd" clip-rule="evenodd" d="M30.8446 21.064C30.9893 21.1681 31.0408 21.3697 30.9656 21.5379L27.436 29.4374C27.3641 29.5984 27.1962 29.6832 27.0341 29.6402C26.8721 29.5973 26.7606 29.4385 26.7674 29.2602L26.9163 25.3276C26.9197 25.2393 26.952 25.155 27.0077 25.0897L30.3884 21.1228C30.5058 20.985 30.6999 20.96 30.8446 21.064ZM9.15531 21.0641C9.29973 20.9601 9.49356 20.9848 9.61109 21.1222L13.0066 25.0891C13.0633 25.1553 13.096 25.241 13.0987 25.3307L13.2178 29.2632C13.2232 29.4411 13.1111 29.5987 12.9493 29.6407C12.7875 29.6827 12.6203 29.5976 12.5488 29.4368L9.03413 21.5374C8.95935 21.3693 9.01088 21.168 9.15531 21.0641ZM10.6785 23.4828L12.4604 27.4878L12.4 25.494L10.6785 23.4828ZM27.6138 25.4948L27.5393 27.4619L29.3049 23.5105L27.6138 25.4948ZM22.2738 21.4294C22.4475 21.4268 22.5969 21.5602 22.6254 21.7434L23.3999 26.7063C23.4065 26.7491 23.4062 26.7928 23.399 26.8355L22.4011 32.6915C22.3688 32.881 22.2076 33.0138 22.0279 32.9989C21.8482 32.9839 21.7081 32.826 21.7037 32.6334L21.525 24.9056C21.5245 24.8852 21.5256 24.8648 21.5282 24.8446L21.9303 21.7535C21.9542 21.5696 22.1002 21.4319 22.2738 21.4294ZM17.7409 21.4294C17.914 21.4318 18.0598 21.5686 18.0844 21.7519L18.5014 24.8601C18.5043 24.8817 18.5054 24.9034 18.5048 24.9251L18.2814 32.6357C18.2758 32.8281 18.1352 32.9849 17.9557 32.999C17.7761 33.0131 17.6156 32.8799 17.5838 32.6905L16.6009 26.8346C16.5937 26.7918 16.5935 26.748 16.6003 26.7052L17.3896 21.7422C17.4187 21.5597 17.5677 21.427 17.7409 21.4294ZM17.3039 26.7664L17.6825 29.0216L17.8009 24.9345L17.7068 24.2333L17.3039 26.7664ZM22.3101 24.2919L22.2287 24.9177L22.3222 28.9596L22.6961 26.7653L22.3101 24.2919Z" fill="#D3FF25"/>
<path d="M22.9364 26.453L21.9744 32.4223L22.6636 33L26.8564 29.0088L27 25L22.9364 26.453ZM13 25L13.1149 29.0088L17.3077 33L17.9969 32.4223L17.0492 26.453L13 25Z" fill="#F2FF5E"/>
<path fill-rule="evenodd" clip-rule="evenodd" d="M27.8548 25.0718C27.9505 25.141 28.0046 25.25 27.9997 25.3638L27.8432 29.0221C27.839 29.1203 27.7914 29.2122 27.712 29.2754L23.1416 32.9178C23.0106 33.0222 22.8209 33.0277 22.6833 32.9312L21.932 32.404C21.819 32.3247 21.7634 32.1915 21.7886 32.0605L22.8373 26.613C22.8618 26.4855 22.9588 26.3813 23.0894 26.3422L27.519 25.0163C27.6338 24.9819 27.7591 25.0026 27.8548 25.0718ZM12.1465 25.0709C12.2422 25.0024 12.367 24.982 12.4814 25.0164L16.8953 26.3423C17.026 26.3816 17.123 26.4861 17.1472 26.6139L18.1803 32.0614C18.2051 32.1921 18.1494 32.3249 18.0367 32.404L17.2854 32.9312C17.1478 33.0277 16.9581 33.0222 16.8271 32.9178L12.2567 29.2754C12.1765 29.2115 12.1288 29.1184 12.1254 29.0193L12.0002 25.361C11.9963 25.2475 12.0509 25.1394 12.1465 25.0709ZM23.5246 26.9455L22.557 31.9718L22.8889 32.2048L27.1112 28.8398L27.2399 25.8334L23.5246 26.9455ZM12.7559 25.8326L16.4591 26.9451L17.4123 31.9714L17.0798 32.2048L12.8588 28.8409L12.7559 25.8326Z" fill="#C6D525"/>
<path d="M23.2 38.4327L23.2457 36.9143L22.8648 36.5551H17.12L16.7695 36.9143L16.8 38.4327L12 36L13.6762 37.4694L17.0743 40H22.9105L26.3238 37.4694L28 36L23.2 38.4327Z" fill="#DAE2BA"/>
<path fill-rule="evenodd" clip-rule="evenodd" d="M12.0597 35.1658C12.1572 35.008 12.3463 34.9547 12.5008 35.0414L16.582 37.3336L16.5643 36.3562C16.5625 36.2551 16.5974 36.1574 16.6613 36.0849L16.9967 35.704C17.0616 35.6303 17.1508 35.5887 17.244 35.5887H22.7415C22.8297 35.5887 22.9145 35.626 22.9785 35.6928L23.3431 36.0738C23.4141 36.148 23.4531 36.2521 23.4502 36.36L23.4238 37.3303L27.4992 35.0414C27.6537 34.9547 27.8428 35.008 27.9403 35.1658C28.0379 35.3237 28.0136 35.5368 27.8835 35.6632L26.2795 37.2215C26.2724 37.2283 26.2651 37.2348 26.2576 37.241L22.9912 39.9247C22.9317 39.9736 22.8594 40 22.7852 40H17.2002C17.1257 40 17.0533 39.9734 16.9937 39.9242L13.7418 37.2405C13.7345 37.2345 13.7274 37.2281 13.7205 37.2215L12.1165 35.6632C11.9864 35.5368 11.9621 35.3237 12.0597 35.1658ZM14.8653 37.2204L17.3149 39.242H22.6709L25.1246 37.226L23.2188 38.2964C23.1104 38.3573 22.9809 38.3507 22.8781 38.279C22.7753 38.2074 22.7145 38.0814 22.7181 37.9475L22.7573 36.5068L22.6041 36.3467H17.3897L17.2557 36.499L17.282 37.9513C17.2844 38.0845 17.2231 38.2093 17.1205 38.2801C17.0179 38.3508 16.8891 38.357 16.7812 38.2964L14.8653 37.2204Z" fill="#B7C09E"/>
<path d="M22.6188 32.6496L21.9412 32H18.0306L17.3529 32.6496L17 37L17.3247 36.5669H22.6471L23 37L22.6188 32.6496Z" fill="#161616"/>
<path fill-rule="evenodd" clip-rule="evenodd" d="M17.2236 32.0723C17.2839 32.0254 17.357 32 17.4321 32H21.5382C21.6133 32 21.6864 32.0254 21.7467 32.0723L22.4582 32.6264C22.5362 32.6871 22.5866 32.779 22.5975 32.8803L22.9978 36.5911C23.0143 36.7446 22.9377 36.8926 22.806 36.9614C22.6744 37.0303 22.5157 37.0054 22.409 36.899L22.1397 36.6306H16.8391L16.6013 36.8882C16.4975 37.0008 16.3371 37.0318 16.2018 36.9654C16.0666 36.8991 15.9864 36.75 16.0019 36.5941L16.3725 32.8833C16.3827 32.7809 16.4334 32.6877 16.5121 32.6264L17.2236 32.0723ZM16.7755 35.8955H22.2183L21.9191 33.1217L21.4226 32.7351H17.5477L17.0526 33.1206L16.7755 35.8955Z" fill="#161616"/>
<path d="M37.7333 13.339L39 6.42373L37.1075 0L22.7718 12.1017L28.2855 17.4068L36.0792 20L37.8078 17.7119L37.0627 17.1017L38.2549 15.8644L37.331 15.0508L38.5231 14.0169L37.7333 13.339ZM1 6.42373L2.26667 13.339L1.46196 14.0169L2.65412 15.0508L1.7451 15.8644L2.93726 17.1017L2.19216 17.7119L3.90588 20L11.6996 17.4068L17.2133 12.1017L2.87765 0L1 6.42373Z" fill="#7E8903"/>
<path fill-rule="evenodd" clip-rule="evenodd" d="M2.14235 0.0158086C2.25453 -0.0190031 2.37653 0.00446107 2.46815 0.0784749L16.9136 11.7472C16.9945 11.8126 17.043 11.9104 17.0464 12.015C17.0497 12.1195 17.0076 12.2203 16.931 12.2907L11.375 17.406C11.337 17.4411 11.2919 17.4673 11.2428 17.4829L3.38937 19.9834C3.24892 20.0281 3.0957 19.9806 3.00443 19.864L1.27759 17.6577C1.219 17.5828 1.19247 17.4875 1.20388 17.3928C1.21529 17.2981 1.2637 17.212 1.33836 17.1534L1.76919 16.8158L0.856638 15.9096C0.785696 15.8391 0.747376 15.7418 0.751043 15.6414C0.75471 15.5411 0.800025 15.4469 0.875916 15.3819L1.4684 14.8745L0.594825 14.1495C0.512264 14.081 0.46475 13.9786 0.465507 13.8707C0.466264 13.7629 0.515211 13.6611 0.598725 13.5938L1.24215 13.075L0.00643322 6.61949C-0.00459791 6.56187 -0.00140613 6.50239 0.0157272 6.4463L1.90775 0.252368C1.94232 0.139196 2.03016 0.0506203 2.14235 0.0158086ZM36.8423 0.0156915C36.9544 0.0503355 37.0422 0.138646 37.077 0.251605L38.984 6.44553C39.0014 6.50184 39.0046 6.5616 38.9936 6.61949L37.7574 13.0772L38.3888 13.5958C38.4712 13.6636 38.5192 13.7651 38.5195 13.8723C38.5198 13.9796 38.4723 14.0814 38.3902 14.1495L37.5193 14.8722L38.1219 15.38C38.1987 15.4447 38.2448 15.5391 38.2489 15.64C38.253 15.7408 38.2147 15.8387 38.1434 15.9096L37.2308 16.8158L37.6616 17.1534C37.7365 17.2121 37.785 17.2986 37.7962 17.3935C37.8075 17.4885 37.7805 17.5841 37.7215 17.6589L35.9796 19.8651C35.8882 19.9809 35.7355 20.0279 35.5956 19.9834L27.7422 17.4829C27.6931 17.4673 27.648 17.4411 27.6099 17.406L22.054 12.2907C21.9774 12.2203 21.9353 12.1195 21.9386 12.015C21.942 11.9104 21.9905 11.8126 22.0714 11.7472L36.5168 0.0784748C36.6084 0.00454937 36.7302 -0.0189525 36.8423 0.0156915ZM22.8383 12.0443L28.0302 16.8244L35.5767 19.2272L36.9432 17.4964L36.4759 17.1302C36.3952 17.0669 36.3454 16.9715 36.3394 16.8686C36.3334 16.7656 36.3718 16.665 36.4447 16.5927L37.3673 15.6764L36.7364 15.1447C36.6554 15.0765 36.6087 14.9753 36.6091 14.8688C36.6095 14.7623 36.6569 14.6615 36.7384 14.5939L37.6051 13.8747L37.1453 13.4969C37.044 13.4137 36.9962 13.2811 37.021 13.1517L38.2805 6.57201L36.5541 0.964873L22.8383 12.0443ZM2.43187 0.965661L0.719459 6.57159L1.97902 13.1517C2.00401 13.2822 1.95518 13.416 1.85223 13.499L1.38303 13.8773L2.24654 14.5939C2.32768 14.6612 2.37505 14.7614 2.37586 14.8674C2.37668 14.9734 2.33085 15.0743 2.25076 15.1429L1.63043 15.6741L2.55534 16.5927C2.6282 16.665 2.66655 16.7656 2.66057 16.8686C2.65458 16.9715 2.60484 17.0669 2.5241 17.1302L2.05559 17.4973L3.40929 19.2268L10.9548 16.8244L16.1467 12.0443L2.43187 0.965661Z" fill="#CCFF00"/>
<path d="M36.3344 19.6347L28.4133 17.0816L30.8214 21.0698L27.232 28.746L31.9574 28.6792H39L36.3344 19.6347ZM11.5564 17.0816L3.63531 19.6347L1 28.6792H8.0275L12.7377 28.746L9.16341 21.0698L11.5564 17.0816ZM22.3097 21.487L22.8095 11.8585L25.1116 5H14.8884L17.1602 11.8585L17.6903 21.487L17.8721 24.5241L17.8872 32H22.0825L22.1128 24.5241L22.3097 21.487Z" fill="#EBFF00"/>
<path fill-rule="evenodd" clip-rule="evenodd" d="M14.6976 5.15384C14.7636 5.05727 14.8697 5 14.9828 5H25.0172C25.1305 5 25.2369 5.05752 25.3028 5.15445C25.3687 5.25137 25.386 5.37576 25.3492 5.48843L23.1055 12.3649L22.6173 22.0404L22.4247 25.0956L22.395 32.6327C22.3942 32.8358 22.2373 33 22.044 33H17.9262C17.7327 33 17.5756 32.8353 17.5752 32.6319L17.5604 25.0943L17.3826 22.0386L17.3825 22.0368L16.8649 12.3647L14.6504 5.48702C14.6141 5.37444 14.6317 5.25041 14.6976 5.15384ZM15.4721 5.73763L17.5452 12.1757C17.5553 12.2072 17.5613 12.24 17.5631 12.2732L18.0833 21.9935L18.0834 21.9953L18.2617 25.0601C18.2621 25.0674 18.2624 25.0746 18.2624 25.0819L18.2765 32.2624H21.6945L21.7228 25.0811C21.7228 25.0735 21.7231 25.0659 21.7235 25.0583L21.9166 21.9942L22.4071 12.2744C22.4088 12.2403 22.415 12.2066 22.4256 12.1743L24.5258 5.73763H15.4721ZM11.9889 17.3407C12.0791 17.462 12.0882 17.6293 12.0116 17.7605L9.76232 21.617L13.1889 29.1871C13.241 29.3022 13.2328 29.4374 13.1673 29.5447C13.1019 29.652 12.9883 29.7161 12.867 29.7143L8.24868 29.647H1.351C1.24018 29.647 1.13587 29.592 1.06963 29.4986C1.00338 29.4053 0.982975 29.2845 1.01459 29.1729L3.60121 20.0406C3.63444 19.9232 3.72091 19.8309 3.832 19.794L11.6068 17.2161C11.7464 17.1698 11.8988 17.2194 11.9889 17.3407ZM27.981 17.3411C28.0711 17.2196 28.2237 17.1697 28.3635 17.2161L36.1383 19.794C36.249 19.8308 36.3353 19.9226 36.3687 20.0394L38.9851 29.1718C39.0171 29.2835 38.9969 29.4045 38.9307 29.4982C38.8645 29.5918 38.76 29.647 38.649 29.647H31.7365L27.1032 29.7143C26.9818 29.7161 26.8682 29.6518 26.8028 29.5444C26.7373 29.437 26.7293 29.3017 26.7816 29.1866L30.2223 21.6173L27.9591 17.7614C27.8822 17.6303 27.8909 17.4627 27.981 17.3411ZM4.2209 20.4386L1.82167 28.9093H8.25355L12.3126 28.9685L9.04663 21.7532C8.99564 21.6406 9.0023 21.5085 9.06434 21.4021L10.9224 18.2165L4.2209 20.4386ZM29.0518 18.2178L30.9203 21.4012C30.9829 21.5079 30.9897 21.6407 30.9383 21.7538L27.6587 28.9686L31.7365 28.9093L38.1768 28.9093L35.75 20.4388L29.0518 18.2178Z" fill="#B0BF06"/>
</svg>
